<?xml version="1.0" encoding="utf-8"?>
<!DOCTYPE svg PUBLIC "-//W3C//DTD SVG 1.1//EN" "http://www.w3.org/Graphics/SVG/1.1/DTD/svg11.dtd">
<svg version="1.1" id="theme_layouts" xmlns="http://www.w3.org/2000/svg" xmlns:xlink="http://www.w3.org/1999/xlink" x="0px"
	 y="0px" width="560px" height="380px" viewBox="0 0 560 380" enable-background="new 0 0 560 380" xml:space="preserve">
<rect id="toolbar-l" y="4" opacity="0.05" fill="#FFFFFF" enable-background="new    " width="127" height="17"/>
<rect id="toolbar-l_2_" x="131" y="4" opacity="0.05" fill="#FFFFFF" enable-background="new    " width="128" height="17"/>
<rect id="logo" y="26" opacity="0.05" fill="#FFFFFF" enable-background="new    " width="41" height="17"/>
<rect id="logo_1_" x="45.136" y="26" opacity="0.05" fill="#FFFFFF" enable-background="new    " width="149.084" height="17"/>
<rect id="headerbar_1_" x="198" y="26" opacity="0.05" fill="#FFFFFF" enable-background="new    " width="61" height="17"/>
<g id="top-a" opacity="0.1">
	<rect y="46" fill="#FFFFFF" width="260" height="22"/>
</g>
<g id="top-b" opacity="0.1">
	<rect y="73" fill="#FFFFFF" width="260" height="22"/>
</g>
<rect id="sidebar-a__x28_left_x29_" y="153" opacity="0.2" fill="#FFFFFF" enable-background="new    " width="26" height="92"/>
<rect id="sidebar-b__x28_left_x29_" x="31" y="153" opacity="0.2" fill="#FFFFFF" enable-background="new    " width="26" height="92"/>
<rect id="sidebar-a__x28_right_x29_" x="234" y="153" opacity="0.2" fill="#FFFFFF" enable-background="new    " width="26" height="92"/>
<rect id="sidebar-b__x28_right_x29_" x="203" y="153" opacity="0.2" fill="#FFFFFF" enable-background="new    " width="26" height="92"/>
<g id="inner_top" opacity="0.1">
	<rect x="62" y="153" fill="#FFFFFF" width="136" height="20"/>
</g>
<rect id="content" x="62" y="178" opacity="0.05" fill="#FFFFFF" enable-background="new    " width="136" height="42"/>
<g id="inner_bottom" opacity="0.1">
	<rect x="62" y="225" fill="#FFFFFF" width="136" height="20"/>
</g>
<g id="bottom-a" opacity="0.1">
	<rect y="250" fill="#FFFFFF" width="260" height="22"/>
</g>
<g id="bottom-b" opacity="0.1">
	<rect y="277" fill="#FFFFFF" width="260" height="22"/>
</g>
<path fill="#FFFFFF" d="M42.263,16h-0.747v-5.761H39.48V9.575h4.815v0.664h-2.034L42.263,16L42.263,16z"/>
<path fill="#FFFFFF" d="M50.84,12.779c0,1.028-0.26,1.837-0.779,2.426c-0.521,0.589-1.243,0.883-2.168,0.883
	c-0.946,0-1.677-0.289-2.19-0.868c-0.515-0.578-0.771-1.395-0.771-2.45c0-1.046,0.258-1.857,0.772-2.432
	c0.516-0.576,1.248-0.864,2.196-0.864c0.924,0,1.645,0.293,2.162,0.879C50.58,10.939,50.84,11.748,50.84,12.779z M45.721,12.779
	c0,0.87,0.185,1.53,0.556,1.98c0.37,0.45,0.909,0.674,1.615,0.674c0.712,0,1.25-0.224,1.612-0.672
	c0.363-0.448,0.545-1.109,0.545-1.982c0-0.864-0.181-1.52-0.543-1.966c-0.361-0.446-0.896-0.67-1.605-0.67
	c-0.712,0-1.253,0.225-1.624,0.674C45.905,11.267,45.721,11.92,45.721,12.779z"/>
<path fill="#FFFFFF" d="M57.85,12.779c0,1.028-0.261,1.837-0.78,2.426c-0.521,0.589-1.242,0.883-2.168,0.883
	c-0.945,0-1.676-0.289-2.19-0.868c-0.515-0.578-0.771-1.395-0.771-2.45c0-1.046,0.258-1.857,0.772-2.432
	c0.517-0.576,1.248-0.864,2.197-0.864c0.923,0,1.645,0.293,2.161,0.879C57.588,10.939,57.85,11.748,57.85,12.779z M52.73,12.779
	c0,0.87,0.186,1.53,0.557,1.98c0.369,0.45,0.908,0.674,1.614,0.674c0.712,0,1.25-0.224,1.613-0.672
	c0.362-0.448,0.545-1.109,0.545-1.982c0-0.864-0.182-1.52-0.543-1.966c-0.362-0.446-0.896-0.67-1.605-0.67
	c-0.713,0-1.253,0.225-1.624,0.674C52.915,11.267,52.73,11.92,52.73,12.779z"/>
<path fill="#FFFFFF" d="M59.282,16V9.575h0.746v5.748h2.834V16H59.282z"/>
<path fill="#FFFFFF" d="M63.953,9.575h1.814c0.854,0,1.469,0.127,1.851,0.382c0.381,0.255,0.57,0.658,0.57,1.208
	c0,0.381-0.105,0.695-0.318,0.942c-0.212,0.248-0.521,0.408-0.93,0.481v0.044c0.977,0.167,1.463,0.68,1.463,1.538
	c0,0.574-0.193,1.022-0.582,1.345C67.435,15.839,66.893,16,66.194,16h-2.24L63.953,9.575L63.953,9.575z M64.7,12.326h1.229
	c0.526,0,0.906-0.083,1.138-0.248c0.23-0.165,0.348-0.445,0.348-0.837c0-0.36-0.129-0.62-0.388-0.78
	c-0.258-0.16-0.668-0.24-1.229-0.24H64.7V12.326z M64.7,12.959v2.404h1.34c0.52,0,0.909-0.1,1.171-0.301
	c0.263-0.2,0.395-0.515,0.395-0.942c0-0.398-0.134-0.691-0.401-0.879c-0.269-0.188-0.677-0.281-1.225-0.281L64.7,12.959L64.7,12.959
	z"/>
<path fill="#FFFFFF" d="M73.823,16l-0.8-2.043h-2.575L69.657,16H68.9l2.54-6.451h0.628L74.598,16H73.823z M72.791,13.284
	l-0.747-1.991c-0.098-0.252-0.195-0.561-0.299-0.927c-0.063,0.281-0.157,0.59-0.277,0.927l-0.756,1.991H72.791z"/>
<path fill="#FFFFFF" d="M76.228,13.328V16H75.48V9.575h1.763c0.787,0,1.369,0.151,1.746,0.453c0.377,0.302,0.564,0.756,0.564,1.362
	c0,0.85-0.432,1.424-1.292,1.723L80.006,16h-0.883l-1.557-2.672H76.228z M76.228,12.687h1.023c0.526,0,0.914-0.104,1.16-0.314
	c0.246-0.209,0.368-0.523,0.368-0.942c0-0.425-0.125-0.731-0.376-0.918c-0.25-0.188-0.651-0.281-1.205-0.281h-0.972L76.228,12.687
	L76.228,12.687z"/>
<path fill="#FFFFFF" d="M173.288,15.912h-0.747V10.15h-2.035V9.487h4.815v0.663h-2.034L173.288,15.912L173.288,15.912z"/>
<path fill="#FFFFFF" d="M181.867,12.691c0,1.027-0.261,1.836-0.78,2.426c-0.521,0.588-1.243,0.883-2.168,0.883
	c-0.946,0-1.676-0.289-2.191-0.868c-0.514-0.578-0.771-1.396-0.771-2.45c0-1.045,0.258-1.856,0.772-2.432
	c0.517-0.576,1.248-0.863,2.197-0.863c0.923,0,1.644,0.293,2.162,0.879C181.607,10.852,181.867,11.66,181.867,12.691z
	 M176.747,12.691c0,0.869,0.185,1.529,0.556,1.979c0.37,0.449,0.909,0.675,1.615,0.675c0.712,0,1.25-0.225,1.612-0.673
	c0.363-0.448,0.546-1.108,0.546-1.981c0-0.864-0.182-1.521-0.543-1.967c-0.362-0.447-0.897-0.67-1.606-0.67
	c-0.712,0-1.253,0.225-1.624,0.674C176.932,11.179,176.747,11.833,176.747,12.691z"/>
<path fill="#FFFFFF" d="M188.876,12.691c0,1.027-0.26,1.836-0.78,2.426c-0.52,0.588-1.243,0.883-2.168,0.883
	c-0.946,0-1.676-0.289-2.191-0.868c-0.514-0.578-0.771-1.396-0.771-2.45c0-1.045,0.258-1.856,0.772-2.432
	c0.517-0.576,1.248-0.863,2.197-0.863c0.923,0,1.645,0.293,2.162,0.879C188.616,10.852,188.876,11.66,188.876,12.691z
	 M183.756,12.691c0,0.869,0.185,1.529,0.556,1.979c0.37,0.449,0.909,0.675,1.615,0.675c0.712,0,1.25-0.225,1.613-0.673
	c0.362-0.448,0.545-1.108,0.545-1.981c0-0.864-0.182-1.521-0.543-1.967c-0.362-0.447-0.897-0.67-1.606-0.67
	c-0.712,0-1.253,0.225-1.624,0.674C183.941,11.179,183.756,11.833,183.756,12.691z"/>
<path fill="#FFFFFF" d="M190.308,15.912V9.487h0.747v5.748h2.834v0.677H190.308z"/>
<path fill="#FFFFFF" d="M194.98,9.487h1.815c0.853,0,1.469,0.128,1.851,0.382c0.381,0.256,0.57,0.658,0.57,1.209
	c0,0.381-0.105,0.695-0.318,0.942c-0.213,0.248-0.521,0.408-0.929,0.481v0.044c0.976,0.167,1.463,0.68,1.463,1.538
	c0,0.574-0.194,1.022-0.582,1.345c-0.389,0.322-0.931,0.483-1.628,0.483h-2.241L194.98,9.487L194.98,9.487z M195.727,12.238h1.23
	c0.526,0,0.906-0.083,1.138-0.248c0.231-0.166,0.347-0.444,0.347-0.838c0-0.359-0.129-0.62-0.387-0.779
	c-0.258-0.16-0.668-0.24-1.229-0.24h-1.1L195.727,12.238L195.727,12.238z M195.727,12.871v2.404h1.34
	c0.52,0,0.909-0.101,1.171-0.302c0.263-0.2,0.395-0.515,0.395-0.942c0-0.398-0.134-0.691-0.402-0.879s-0.676-0.281-1.224-0.281
	H195.727z"/>
<path fill="#FFFFFF" d="M204.85,15.912l-0.801-2.043h-2.574l-0.791,2.043h-0.756l2.539-6.451h0.629l2.527,6.451H204.85z
	 M203.817,13.196l-0.747-1.991c-0.097-0.251-0.195-0.561-0.299-0.927c-0.063,0.281-0.157,0.591-0.275,0.927l-0.757,1.991H203.817z"
	/>
<path fill="#FFFFFF" d="M207.254,13.24v2.672h-0.747V9.487h1.762c0.789,0,1.371,0.151,1.748,0.452
	c0.375,0.303,0.564,0.756,0.564,1.363c0,0.85-0.433,1.424-1.293,1.723l1.745,2.887h-0.885l-1.555-2.672H207.254z M207.254,12.599
	h1.023c0.527,0,0.914-0.104,1.16-0.314c0.246-0.209,0.369-0.523,0.369-0.942c0-0.425-0.125-0.73-0.377-0.918
	c-0.25-0.188-0.652-0.281-1.205-0.281h-0.972L207.254,12.599L207.254,12.599z"/>
<path fill="#FFFFFF" d="M211.555,13.834v-0.668h2.158v0.668H211.555z"/>
<path fill="#FFFFFF" d="M215.714,13.24v2.672h-0.748V9.487h1.763c0.788,0,1.37,0.151,1.747,0.452
	c0.376,0.303,0.564,0.756,0.564,1.363c0,0.85-0.432,1.424-1.292,1.723l1.745,2.887h-0.885l-1.556-2.672H215.714z M215.714,12.599
	h1.022c0.527,0,0.914-0.104,1.16-0.314c0.246-0.209,0.369-0.523,0.369-0.942c0-0.425-0.125-0.73-0.376-0.918
	c-0.25-0.188-0.652-0.281-1.206-0.281h-0.971L215.714,12.599L215.714,12.599z"/>
<g>
	<path fill="#FFFFFF" d="M9.275,38v-6.425h0.747v5.748h2.834V38H9.275z"/>
	<path fill="#FFFFFF" d="M19.523,34.779c0,1.028-0.26,1.837-0.779,2.426c-0.521,0.589-1.243,0.883-2.168,0.883
		c-0.946,0-1.677-0.289-2.191-0.868c-0.514-0.578-0.771-1.395-0.771-2.45c0-1.046,0.259-1.857,0.773-2.432
		c0.516-0.576,1.248-0.864,2.197-0.864c0.923,0,1.644,0.293,2.162,0.879C19.263,32.939,19.523,33.748,19.523,34.779z M14.403,34.779
		c0,0.87,0.186,1.53,0.557,1.98c0.37,0.45,0.909,0.674,1.615,0.674c0.712,0,1.25-0.224,1.612-0.672
		c0.363-0.448,0.545-1.109,0.545-1.982c0-0.864-0.181-1.52-0.543-1.966c-0.361-0.446-0.896-0.67-1.605-0.67
		c-0.712,0-1.253,0.225-1.624,0.674C14.589,33.267,14.403,33.92,14.403,34.779z"/>
	<path fill="#FFFFFF" d="M23.781,34.634h2.185v3.125c-0.34,0.108-0.687,0.19-1.037,0.246c-0.351,0.056-0.759,0.083-1.222,0.083
		c-0.974,0-1.73-0.289-2.272-0.868c-0.542-0.578-0.812-1.389-0.812-2.432c0-0.668,0.134-1.253,0.401-1.755
		c0.27-0.502,0.654-0.886,1.158-1.151c0.504-0.265,1.094-0.398,1.771-0.398c0.686,0,1.323,0.126,1.916,0.378l-0.29,0.659
		c-0.58-0.246-1.139-0.369-1.675-0.369c-0.781,0-1.393,0.233-1.833,0.699c-0.439,0.466-0.658,1.112-0.658,1.938
		c0,0.867,0.211,1.525,0.635,1.973c0.423,0.448,1.045,0.672,1.865,0.672c0.444,0,0.88-0.051,1.305-0.154v-1.979H23.78L23.781,34.634
		L23.781,34.634z"/>
	<path fill="#FFFFFF" d="M33.085,34.779c0,1.028-0.26,1.837-0.78,2.426s-1.243,0.883-2.168,0.883c-0.946,0-1.676-0.289-2.191-0.868
		c-0.514-0.578-0.771-1.395-0.771-2.45c0-1.046,0.258-1.857,0.773-2.432c0.516-0.576,1.247-0.864,2.196-0.864
		c0.923,0,1.645,0.293,2.162,0.879C32.825,32.939,33.085,33.748,33.085,34.779z M27.965,34.779c0,0.87,0.185,1.53,0.556,1.98
		c0.37,0.45,0.909,0.674,1.615,0.674c0.712,0,1.25-0.224,1.613-0.672c0.362-0.448,0.545-1.109,0.545-1.982
		c0-0.864-0.182-1.52-0.543-1.966c-0.362-0.446-0.897-0.67-1.606-0.67c-0.712,0-1.253,0.225-1.624,0.674
		C28.15,33.267,27.965,33.92,27.965,34.779z"/>
</g>
<g>
	<path fill="#FFFFFF" d="M120.459,37.957l-2.181-5.695h-0.035c0.041,0.451,0.062,0.987,0.062,1.608v4.087h-0.69v-6.425h1.125
		l2.035,5.3h0.035l2.052-5.3h1.116v6.425h-0.747v-4.14c0-0.475,0.021-0.99,0.062-1.547h-0.035l-2.198,5.687H120.459z"/>
	<path fill="#FFFFFF" d="M129.323,37.957h-3.582v-6.425h3.582v0.664h-2.834v2.07h2.663v0.659h-2.663v2.364h2.834V37.957z"/>
	<path fill="#FFFFFF" d="M135.766,37.957h-0.854l-3.512-5.392h-0.035c0.047,0.633,0.07,1.213,0.07,1.74v3.652h-0.689v-6.425h0.844
		l3.502,5.37h0.035c-0.006-0.079-0.02-0.333-0.039-0.763c-0.021-0.429-0.029-0.736-0.023-0.92v-3.687h0.699L135.766,37.957
		L135.766,37.957z"/>
	<path fill="#FFFFFF" d="M142.385,31.532v4.157c0,0.732-0.223,1.308-0.664,1.727c-0.443,0.419-1.051,0.628-1.824,0.628
		c-0.775,0-1.373-0.211-1.795-0.633c-0.424-0.422-0.635-1.002-0.635-1.74v-4.14h0.746v4.192c0,0.536,0.146,0.948,0.439,1.235
		s0.725,0.431,1.291,0.431c0.543,0,0.959-0.144,1.252-0.433c0.293-0.288,0.439-0.702,0.439-1.241v-4.184L142.385,31.532
		L142.385,31.532z"/>
</g>
<g>
	<path fill="#FFFFFF" d="M215.366,36.291c0,0.565-0.205,1.006-0.615,1.323c-0.41,0.317-0.967,0.475-1.67,0.475
		c-0.764,0-1.35-0.098-1.759-0.294v-0.721c0.265,0.111,0.552,0.199,0.86,0.264c0.312,0.065,0.618,0.097,0.924,0.097
		c0.498,0,0.873-0.094,1.125-0.284c0.252-0.188,0.377-0.452,0.377-0.789c0-0.223-0.045-0.405-0.133-0.547
		c-0.091-0.142-0.24-0.273-0.449-0.393s-0.526-0.256-0.955-0.409c-0.598-0.214-1.024-0.467-1.28-0.76s-0.385-0.675-0.385-1.147
		c0-0.495,0.187-0.889,0.559-1.182s0.864-0.439,1.477-0.439c0.641,0,1.228,0.117,1.764,0.352l-0.233,0.65
		c-0.529-0.223-1.046-0.334-1.547-0.334c-0.396,0-0.705,0.085-0.927,0.255c-0.223,0.17-0.334,0.406-0.334,0.708
		c0,0.223,0.041,0.405,0.123,0.547c0.082,0.143,0.22,0.272,0.416,0.392c0.193,0.118,0.492,0.25,0.894,0.393
		c0.674,0.24,1.137,0.498,1.391,0.773C215.239,35.494,215.366,35.851,215.366,36.291z"/>
	<path fill="#FFFFFF" d="M220.262,38h-3.582v-6.425h3.582v0.664h-2.834v2.07h2.663v0.659h-2.663v2.364h2.834V38z"/>
	<path fill="#FFFFFF" d="M225.725,38l-0.801-2.043h-2.574L221.559,38h-0.757l2.54-6.451h0.629L226.498,38H225.725z M224.691,35.284
		l-0.748-1.991c-0.096-0.252-0.194-0.561-0.299-0.927c-0.062,0.281-0.156,0.59-0.275,0.927l-0.758,1.991H224.691z"/>
	<path fill="#FFFFFF" d="M228.128,35.328V38h-0.747v-6.425h1.762c0.789,0,1.371,0.151,1.748,0.453
		c0.375,0.302,0.563,0.756,0.563,1.362c0,0.85-0.432,1.424-1.292,1.723L231.907,38h-0.885l-1.556-2.672H228.128z M228.128,34.687
		h1.023c0.527,0,0.914-0.104,1.16-0.314c0.246-0.209,0.369-0.523,0.369-0.942c0-0.425-0.125-0.731-0.377-0.918
		c-0.25-0.188-0.652-0.281-1.205-0.281h-0.972L228.128,34.687L228.128,34.687z"/>
	<path fill="#FFFFFF" d="M235.695,32.151c-0.707,0-1.264,0.235-1.672,0.706c-0.407,0.47-0.612,1.114-0.612,1.931
		c0,0.841,0.196,1.491,0.591,1.949c0.394,0.459,0.956,0.688,1.685,0.688c0.448,0,0.959-0.081,1.535-0.242v0.655
		c-0.445,0.167-0.996,0.25-1.646,0.25c-0.946,0-1.678-0.287-2.191-0.861c-0.514-0.574-0.771-1.39-0.771-2.448
		c0-0.662,0.123-1.242,0.371-1.74s0.604-0.882,1.074-1.151c0.467-0.27,1.017-0.404,1.648-0.404c0.674,0,1.263,0.123,1.768,0.369
		l-0.315,0.642C236.668,32.265,236.182,32.151,235.695,32.151z"/>
	<path fill="#FFFFFF" d="M243.5,38h-0.747v-3.023h-3.384V38h-0.747v-6.425h0.747v2.733h3.384v-2.733h0.747V38z"/>
</g>
<g id="top-b_1_" opacity="0.1">
	<rect y="100" fill="#FFFFFF" width="260" height="22"/>
</g>
<g>
	<path fill="#FFFFFF" d="M114.585,196.562c-0.706,0-1.264,0.231-1.672,0.707c-0.408,0.474-0.613,1.109-0.613,1.936
		c0,0.841,0.197,1.486,0.591,1.943c0.395,0.459,0.956,0.688,1.686,0.688c0.447,0,0.959-0.081,1.533-0.239v0.652
		c-0.444,0.167-0.994,0.25-1.647,0.25c-0.946,0-1.676-0.287-2.191-0.859c-0.514-0.574-0.771-1.392-0.771-2.447
		c0-0.658,0.124-1.235,0.372-1.733c0.247-0.498,0.604-0.89,1.071-1.146c0.468-0.271,1.018-0.401,1.65-0.401
		c0.674,0,1.263,0.122,1.767,0.368l-0.315,0.644C115.558,196.678,115.071,196.562,114.585,196.562z"/>
	<path fill="#FFFFFF" d="M123.088,199.191c0,1.021-0.26,1.836-0.78,2.426c-0.52,0.589-1.243,0.883-2.168,0.883
		c-0.946,0-1.676-0.289-2.19-0.867c-0.515-0.578-0.771-1.396-0.771-2.451c0-1.045,0.258-1.854,0.773-2.432
		c0.516-0.576,1.248-0.863,2.196-0.863c0.923,0,1.645,0.293,2.162,0.879C122.828,197.352,123.088,198.16,123.088,199.191z
		 M117.969,199.191c0,0.869,0.185,1.523,0.556,1.979c0.37,0.45,0.909,0.676,1.615,0.676c0.712,0,1.25-0.226,1.613-0.674
		c0.363-0.447,0.545-1.107,0.545-1.98c0-0.856-0.181-1.521-0.543-1.967c-0.362-0.439-0.897-0.67-1.606-0.67
		c-0.712,0-1.253,0.229-1.624,0.674C118.154,197.68,117.969,198.332,117.969,199.191z"/>
	<path fill="#FFFFFF" d="M129.54,202.412h-0.854l-3.511-5.393h-0.035c0.047,0.633,0.07,1.213,0.07,1.731v3.649h-0.69v-6.43h0.844
		l3.503,5.369h0.034c-0.006-0.078-0.019-0.334-0.04-0.764s-0.027-0.736-0.021-0.92v-3.688h0.699L129.54,202.412L129.54,202.412z"/>
	<path fill="#FFFFFF" d="M133.284,202.412h-0.747v-5.762h-2.035v-0.664h4.815v0.664h-2.034L133.284,202.412L133.284,202.412z"/>
	<path fill="#FFFFFF" d="M139.867,202.412h-3.582v-6.426h3.582v0.664h-2.834v2.07h2.662v0.65h-2.662v2.361h2.834V202.412z"/>
	<path fill="#FFFFFF" d="M146.309,202.412h-0.853l-3.512-5.393h-0.034c0.047,0.633,0.069,1.213,0.069,1.731v3.649h-0.689v-6.43
		h0.844l3.502,5.369h0.035c-0.006-0.078-0.02-0.334-0.04-0.764c-0.021-0.43-0.028-0.736-0.022-0.92v-3.688h0.699L146.309,202.412
		L146.309,202.412z"/>
	<path fill="#FFFFFF" d="M150.053,202.412h-0.747v-5.762h-2.035v-0.664h4.817v0.664h-2.035V202.412z"/>
</g>
<g>
	<path fill="#FFFFFF" d="M107.791,285.575h1.814c0.854,0,1.47,0.128,1.851,0.382c0.381,0.256,0.57,0.658,0.57,1.209
		c0,0.381-0.105,0.695-0.318,0.941c-0.212,0.248-0.522,0.408-0.93,0.479v0.044c0.977,0.167,1.464,0.683,1.464,1.538
		c0,0.574-0.194,1.021-0.582,1.348c-0.39,0.319-0.932,0.48-1.628,0.48h-2.241V285.575z M108.538,288.326h1.229
		c0.527,0,0.907-0.082,1.138-0.248s0.348-0.445,0.348-0.838c0-0.359-0.129-0.619-0.387-0.779c-0.259-0.16-0.668-0.24-1.23-0.24
		h-1.099L108.538,288.326L108.538,288.326z M108.538,288.959v2.404h1.34c0.519,0,0.909-0.104,1.171-0.303
		c0.262-0.199,0.394-0.521,0.394-0.941c0-0.398-0.134-0.691-0.401-0.879c-0.269-0.188-0.677-0.281-1.225-0.281H108.538
		L108.538,288.959z"/>
	<path fill="#FFFFFF" d="M119.199,288.779c0,1.027-0.261,1.836-0.78,2.426c-0.521,0.588-1.243,0.883-2.168,0.883
		c-0.946,0-1.676-0.289-2.191-0.868c-0.514-0.577-0.771-1.396-0.771-2.45c0-1.045,0.258-1.854,0.772-2.432
		c0.517-0.576,1.248-0.863,2.197-0.863c0.923,0,1.644,0.293,2.162,0.879C118.939,286.939,119.199,287.748,119.199,288.779z
		 M114.079,288.779c0,0.869,0.185,1.529,0.556,1.979c0.37,0.45,0.909,0.676,1.615,0.676c0.712,0,1.25-0.226,1.612-0.674
		c0.363-0.447,0.546-1.107,0.546-1.98c0-0.854-0.182-1.521-0.543-1.967c-0.362-0.438-0.897-0.67-1.606-0.67
		c-0.712,0-1.253,0.229-1.624,0.674C114.264,287.268,114.079,287.92,114.079,288.779z"/>
	<path fill="#FFFFFF" d="M122.609,292h-0.747v-5.762h-2.034v-0.663h4.815v0.663h-2.035L122.609,292L122.609,292z"/>
	<path fill="#FFFFFF" d="M127.588,292h-0.747v-5.762h-2.035v-0.663h4.816v0.663h-2.035L127.588,292L127.588,292z"/>
	<path fill="#FFFFFF" d="M136.166,288.779c0,1.027-0.261,1.836-0.78,2.426c-0.52,0.588-1.243,0.883-2.168,0.883
		c-0.946,0-1.676-0.289-2.191-0.868c-0.514-0.577-0.771-1.396-0.771-2.45c0-1.045,0.258-1.854,0.772-2.432
		c0.517-0.576,1.248-0.863,2.197-0.863c0.923,0,1.645,0.293,2.162,0.879C135.906,286.939,136.166,287.748,136.166,288.779z
		 M131.046,288.779c0,0.869,0.185,1.529,0.556,1.979c0.37,0.45,0.909,0.676,1.615,0.676c0.712,0,1.25-0.226,1.613-0.674
		c0.362-0.447,0.545-1.107,0.545-1.98c0-0.854-0.182-1.521-0.543-1.967c-0.362-0.438-0.897-0.67-1.606-0.67
		c-0.712,0-1.253,0.229-1.624,0.674C131.231,287.268,131.046,287.92,131.046,288.779z"/>
	<path fill="#FFFFFF" d="M140.442,292l-2.18-5.695h-0.035c0.041,0.451,0.062,0.987,0.062,1.608V292h-0.69v-6.425h1.125l2.035,5.3
		h0.035l2.052-5.3h1.116V292h-0.747v-4.141c0-0.479,0.021-0.989,0.062-1.547h-0.034L141.044,292H140.442z"/>
	<path fill="#FFFFFF" d="M145.21,289.922v-0.668h2.158v0.668H145.21z"/>
	<path fill="#FFFFFF" d="M148.62,285.575h1.814c0.854,0,1.469,0.128,1.851,0.382c0.381,0.256,0.57,0.658,0.57,1.209
		c0,0.381-0.105,0.695-0.318,0.941c-0.212,0.248-0.522,0.408-0.93,0.479v0.044c0.977,0.167,1.463,0.683,1.463,1.538
		c0,0.574-0.193,1.021-0.582,1.348c-0.389,0.319-0.931,0.48-1.628,0.48h-2.24V285.575z M149.367,288.326h1.229
		c0.527,0,0.907-0.082,1.138-0.248s0.348-0.445,0.348-0.838c0-0.359-0.129-0.619-0.388-0.779c-0.258-0.16-0.668-0.24-1.229-0.24
		h-1.099L149.367,288.326L149.367,288.326z M149.367,288.959v2.404h1.34c0.519,0,0.909-0.104,1.171-0.303
		c0.262-0.199,0.394-0.521,0.394-0.941c0-0.398-0.134-0.691-0.401-0.879c-0.269-0.188-0.677-0.281-1.225-0.281H149.367
		L149.367,288.959z"/>
</g>
<g id="bottom-b_1_" opacity="0.1">
	<rect y="304" fill="#FFFFFF" width="260" height="22"/>
</g>
<path fill="#FFFFFF" d="M107.791,312.575h1.814c0.854,0,1.47,0.128,1.851,0.382c0.381,0.256,0.57,0.658,0.57,1.209
	c0,0.381-0.105,0.695-0.318,0.941c-0.212,0.248-0.522,0.408-0.93,0.479v0.044c0.977,0.167,1.464,0.683,1.464,1.538
	c0,0.574-0.194,1.021-0.582,1.348c-0.39,0.319-0.932,0.48-1.628,0.48h-2.241V312.575z M108.538,315.326h1.229
	c0.527,0,0.907-0.082,1.138-0.248s0.348-0.445,0.348-0.838c0-0.359-0.129-0.619-0.387-0.779c-0.259-0.16-0.668-0.24-1.23-0.24
	h-1.099L108.538,315.326L108.538,315.326z M108.538,315.959v2.404h1.34c0.519,0,0.909-0.104,1.171-0.303
	c0.262-0.199,0.394-0.521,0.394-0.941c0-0.398-0.134-0.691-0.401-0.879c-0.269-0.188-0.677-0.281-1.225-0.281H108.538
	L108.538,315.959z"/>
<path fill="#FFFFFF" d="M119.199,315.779c0,1.027-0.261,1.836-0.78,2.426c-0.521,0.588-1.243,0.883-2.168,0.883
	c-0.946,0-1.676-0.289-2.191-0.868c-0.514-0.577-0.771-1.396-0.771-2.45c0-1.045,0.258-1.854,0.772-2.432
	c0.517-0.576,1.248-0.863,2.197-0.863c0.923,0,1.644,0.293,2.162,0.879C118.939,313.939,119.199,314.748,119.199,315.779z
	 M114.079,315.779c0,0.869,0.185,1.529,0.556,1.979c0.37,0.45,0.909,0.676,1.615,0.676c0.712,0,1.25-0.226,1.612-0.674
	c0.363-0.447,0.546-1.107,0.546-1.98c0-0.854-0.182-1.521-0.543-1.967c-0.362-0.438-0.897-0.67-1.606-0.67
	c-0.712,0-1.253,0.229-1.624,0.674C114.264,314.268,114.079,314.92,114.079,315.779z"/>
<path fill="#FFFFFF" d="M122.609,319h-0.747v-5.762h-2.034v-0.663h4.815v0.663h-2.035L122.609,319L122.609,319z"/>
<path fill="#FFFFFF" d="M127.588,319h-0.747v-5.762h-2.035v-0.663h4.816v0.663h-2.035L127.588,319L127.588,319z"/>
<path fill="#FFFFFF" d="M136.166,315.779c0,1.027-0.261,1.836-0.78,2.426c-0.52,0.588-1.243,0.883-2.168,0.883
	c-0.946,0-1.676-0.289-2.191-0.868c-0.514-0.577-0.771-1.396-0.771-2.45c0-1.045,0.258-1.854,0.772-2.432
	c0.517-0.576,1.248-0.863,2.197-0.863c0.923,0,1.645,0.293,2.162,0.879C135.906,313.939,136.166,314.748,136.166,315.779z
	 M131.046,315.779c0,0.869,0.185,1.529,0.556,1.979c0.37,0.45,0.909,0.676,1.615,0.676c0.712,0,1.25-0.226,1.613-0.674
	c0.362-0.447,0.545-1.107,0.545-1.98c0-0.854-0.182-1.521-0.543-1.967c-0.362-0.438-0.897-0.67-1.606-0.67
	c-0.712,0-1.253,0.229-1.624,0.674C131.231,314.268,131.046,314.92,131.046,315.779z"/>
<path fill="#FFFFFF" d="M140.442,319l-2.18-5.695h-0.035c0.041,0.451,0.062,0.987,0.062,1.608V319h-0.69v-6.425h1.125l2.035,5.3
	h0.035l2.052-5.3h1.116V319h-0.747v-4.141c0-0.479,0.021-0.989,0.062-1.547h-0.034L141.044,319H140.442z"/>
<path fill="#FFFFFF" d="M145.21,316.922v-0.668h2.158v0.668H145.21z"/>
<g>
	<path fill="#FFFFFF" d="M107.858,258.575h1.815c0.853,0,1.469,0.128,1.85,0.382c0.381,0.256,0.571,0.658,0.571,1.209
		c0,0.381-0.106,0.695-0.319,0.941c-0.212,0.248-0.521,0.408-0.929,0.479v0.044c0.976,0.167,1.463,0.683,1.463,1.538
		c0,0.574-0.193,1.021-0.582,1.348c-0.389,0.319-0.931,0.48-1.628,0.48h-2.241V258.575z M108.605,261.326h1.23
		c0.526,0,0.907-0.082,1.138-0.248s0.347-0.445,0.347-0.838c0-0.359-0.129-0.619-0.387-0.779c-0.258-0.16-0.668-0.24-1.229-0.24
		h-1.1L108.605,261.326L108.605,261.326z M108.605,261.959v2.404h1.34c0.52,0,0.909-0.104,1.172-0.303
		c0.262-0.199,0.394-0.521,0.394-0.941c0-0.398-0.134-0.691-0.402-0.879c-0.268-0.188-0.676-0.281-1.224-0.281H108.605
		L108.605,261.959z"/>
	<path fill="#FFFFFF" d="M119.267,261.779c0,1.027-0.26,1.836-0.78,2.426c-0.52,0.588-1.242,0.883-2.168,0.883
		c-0.945,0-1.676-0.289-2.19-0.867c-0.514-0.578-0.771-1.396-0.771-2.451c0-1.045,0.259-1.854,0.773-2.432
		c0.516-0.576,1.248-0.863,2.197-0.863c0.923,0,1.644,0.293,2.161,0.879C119.007,259.939,119.267,260.748,119.267,261.779z
		 M114.147,261.779c0,0.869,0.186,1.529,0.557,1.979c0.37,0.45,0.908,0.676,1.614,0.676c0.712,0,1.25-0.226,1.613-0.674
		c0.363-0.447,0.545-1.107,0.545-1.979c0-0.865-0.181-1.521-0.543-1.969c-0.362-0.445-0.896-0.67-1.605-0.67
		c-0.712,0-1.253,0.227-1.624,0.674C114.332,260.268,114.147,260.92,114.147,261.779z"/>
	<path fill="#FFFFFF" d="M122.677,265h-0.747v-5.762h-2.035v-0.663h4.816v0.663h-2.035L122.677,265L122.677,265z"/>
	<path fill="#FFFFFF" d="M127.656,265h-0.746v-5.762h-2.035v-0.663h4.815v0.663h-2.035L127.656,265L127.656,265z"/>
	<path fill="#FFFFFF" d="M136.234,261.779c0,1.027-0.26,1.836-0.779,2.426c-0.521,0.588-1.243,0.883-2.168,0.883
		c-0.946,0-1.677-0.289-2.191-0.867c-0.514-0.578-0.771-1.396-0.771-2.451c0-1.045,0.258-1.854,0.772-2.432
		c0.516-0.576,1.248-0.863,2.197-0.863c0.923,0,1.644,0.293,2.162,0.879S136.234,260.748,136.234,261.779z M131.114,261.779
		c0,0.869,0.186,1.529,0.557,1.979c0.37,0.45,0.909,0.676,1.615,0.676c0.712,0,1.25-0.226,1.612-0.674
		c0.363-0.447,0.545-1.107,0.545-1.979c0-0.865-0.181-1.521-0.543-1.969c-0.361-0.445-0.896-0.67-1.605-0.67
		c-0.712,0-1.253,0.227-1.624,0.674C131.299,260.268,131.114,260.92,131.114,261.779z"/>
	<path fill="#FFFFFF" d="M140.51,265l-2.18-5.695h-0.035c0.041,0.451,0.062,0.987,0.062,1.608V265h-0.689v-6.425h1.125l2.035,5.3
		h0.034l2.053-5.3h1.115V265h-0.746v-4.141c0-0.479,0.021-0.989,0.062-1.547h-0.035L141.112,265H140.51z"/>
	<path fill="#FFFFFF" d="M145.278,262.922v-0.668h2.158v0.668H145.278z"/>
	<path fill="#FFFFFF" d="M152.727,265l-0.8-2.043h-2.575L148.561,265h-0.756l2.54-6.451h0.628L153.5,265H152.727z M151.694,262.284
		l-0.747-1.991c-0.097-0.252-0.195-0.561-0.299-0.927c-0.063,0.28-0.156,0.591-0.276,0.927l-0.756,1.991H151.694z"/>
</g>
<g>
	<path fill="#FFFFFF" d="M14.703,217.457c0.564,0,1.006,0.205,1.322,0.615c0.317,0.41,0.475,0.967,0.475,1.67
		c0,0.762-0.099,1.348-0.294,1.758h-0.722c0.111-0.264,0.199-0.551,0.265-0.861c0.064-0.31,0.097-0.617,0.097-0.923
		c0-0.498-0.094-0.873-0.284-1.125c-0.188-0.252-0.452-0.378-0.789-0.378c-0.223,0-0.404,0.045-0.547,0.135
		c-0.142,0.09-0.272,0.238-0.393,0.447c-0.12,0.21-0.256,0.528-0.409,0.956c-0.214,0.599-0.467,1.024-0.76,1.281
		c-0.293,0.256-0.676,0.384-1.147,0.384c-0.495,0-0.889-0.186-1.182-0.559c-0.293-0.371-0.439-0.863-0.439-1.479
		c0-0.64,0.117-1.229,0.353-1.762l0.649,0.229c-0.223,0.526-0.334,1.048-0.334,1.548c0,0.396,0.085,0.705,0.255,0.934
		c0.17,0.222,0.406,0.334,0.708,0.334c0.224,0,0.405-0.041,0.548-0.123c0.143-0.082,0.271-0.227,0.392-0.416
		c0.118-0.194,0.25-0.493,0.393-0.896c0.24-0.68,0.498-1.143,0.773-1.396C13.906,217.584,14.263,217.457,14.703,217.457z"/>
	<path fill="#FFFFFF" d="M16.412,216.143H9.987v-0.746h6.426L16.412,216.143L16.412,216.143z"/>
	<path fill="#FFFFFF" d="M13.138,208.505c1.062,0,1.872,0.288,2.432,0.863c0.562,0.575,0.843,1.403,0.843,2.485v1.771H9.987v-1.97
		c0-0.998,0.277-1.771,0.831-2.328C11.372,208.781,12.145,208.505,13.138,208.505z M13.165,209.296c-0.838,0-1.47,0.21-1.895,0.631
		s-0.637,1.046-0.637,1.874v1.086h5.133v-0.91c0-0.892-0.219-1.561-0.657-2.009C14.672,209.52,14.023,209.296,13.165,209.296z"/>
	<path fill="#FFFFFF" d="M16.412,203.491v3.582H9.987v-3.582h0.664v2.834h2.07v-2.663h0.659v2.663h2.364v-2.834H16.412z"/>
	<path fill="#FFFFFF" d="M9.987,202.066v-1.814c0-0.854,0.127-1.469,0.383-1.85c0.255-0.381,0.657-0.571,1.208-0.571
		c0.381,0,0.694,0.106,0.941,0.319c0.248,0.211,0.408,0.521,0.481,0.929h0.044c0.167-0.976,0.68-1.463,1.538-1.463
		c0.573,0,1.021,0.194,1.345,0.582c0.322,0.389,0.483,0.931,0.483,1.628v2.24H9.987L9.987,202.066z M12.738,201.32v-1.23
		c0-0.527-0.083-0.906-0.247-1.138c-0.165-0.231-0.445-0.347-0.838-0.347c-0.359,0-0.619,0.129-0.779,0.387s-0.24,0.668-0.24,1.23
		v1.098H12.738L12.738,201.32z M13.371,201.32h2.403v-1.34c0-0.521-0.1-0.91-0.301-1.172c-0.2-0.271-0.515-0.396-0.941-0.396
		c-0.398,0-0.691,0.134-0.88,0.398c-0.188,0.271-0.28,0.68-0.28,1.228L13.371,201.32L13.371,201.32z"/>
	<path fill="#FFFFFF" d="M16.412,192.197l-2.043,0.8v2.575l2.043,0.791v0.756l-6.451-2.54v-0.628l6.451-2.527V192.197z
		 M13.696,193.23l-1.99,0.746c-0.252,0.098-0.562,0.188-0.928,0.299c0.281,0.062,0.591,0.158,0.928,0.271l1.99,0.763V193.23
		L13.696,193.23z"/>
	<path fill="#FFFFFF" d="M13.74,189.793h2.672v0.747H9.987v-1.763c0-0.787,0.151-1.369,0.453-1.746
		c0.303-0.377,0.756-0.564,1.362-0.564c0.85,0,1.424,0.432,1.723,1.292l2.888-1.745v0.883l-2.672,1.563L13.74,189.793L13.74,189.793
		z M13.099,189.793v-1.023c0-0.521-0.104-0.914-0.313-1.16c-0.209-0.238-0.523-0.361-0.942-0.361c-0.425,0-0.731,0.125-0.918,0.376
		c-0.188,0.25-0.281,0.646-0.281,1.206v0.971L13.099,189.793L13.099,189.793z"/>
	<path fill="#FFFFFF" d="M14.333,185.491h-0.668v-2.158h0.668V185.491z"/>
	<path fill="#FFFFFF" d="M16.412,178.042l-2.043,0.8v2.575l2.043,0.791v0.756l-6.451-2.54v-0.628l6.451-2.526V178.042z
		 M13.696,179.075l-1.99,0.747c-0.252,0.097-0.562,0.195-0.928,0.299c0.281,0.064,0.591,0.156,0.928,0.277l1.99,0.756V179.075
		L13.696,179.075z"/>
</g>
<g>
	<path fill="#FFFFFF" d="M46.307,217.328c0.565,0,1.006,0.205,1.323,0.615c0.316,0.41,0.474,0.967,0.474,1.67
		c0,0.762-0.098,1.348-0.294,1.758h-0.721c0.111-0.264,0.199-0.551,0.264-0.861c0.065-0.31,0.098-0.617,0.098-0.923
		c0-0.498-0.095-0.873-0.284-1.125c-0.188-0.252-0.452-0.378-0.789-0.378c-0.224,0-0.405,0.045-0.547,0.134
		c-0.143,0.091-0.273,0.239-0.394,0.448c-0.12,0.21-0.256,0.527-0.409,0.956c-0.214,0.599-0.467,1.024-0.76,1.28
		c-0.293,0.257-0.675,0.385-1.146,0.385c-0.495,0-0.89-0.186-1.183-0.559c-0.293-0.371-0.438-0.863-0.438-1.479
		c0-0.642,0.117-1.229,0.352-1.765l0.65,0.229c-0.224,0.53-0.334,1.047-0.334,1.547c0,0.396,0.085,0.705,0.255,0.932
		c0.17,0.229,0.406,0.334,0.708,0.334c0.223,0,0.405-0.041,0.547-0.121c0.143-0.079,0.272-0.223,0.392-0.413
		c0.118-0.192,0.25-0.491,0.394-0.896c0.24-0.674,0.498-1.137,0.772-1.391C45.51,217.455,45.867,217.328,46.307,217.328z"/>
	<path fill="#FFFFFF" d="M48.016,216.014h-6.425v-0.746h6.425V216.014z"/>
	<path fill="#FFFFFF" d="M44.742,208.376c1.061,0,1.871,0.288,2.432,0.863c0.562,0.575,0.842,1.403,0.842,2.485v1.771h-6.425v-1.972
		c0-0.998,0.277-1.772,0.831-2.326C42.976,208.652,43.749,208.376,44.742,208.376z M44.769,209.167c-0.838,0-1.469,0.21-1.894,0.631
		s-0.638,1.045-0.638,1.874v1.085h5.134v-0.909c0-0.892-0.22-1.561-0.657-2.009C46.276,209.391,45.627,209.167,44.769,209.167z"/>
	<path fill="#FFFFFF" d="M48.016,203.361v3.582h-6.425v-3.582h0.664v2.834h2.07v-2.662h0.658v2.662h2.364v-2.834H48.016z"/>
	<path fill="#FFFFFF" d="M41.591,201.938v-1.812c0-0.854,0.127-1.469,0.382-1.853c0.255-0.381,0.658-0.568,1.208-0.568
		c0.381,0,0.695,0.104,0.942,0.316c0.248,0.211,0.407,0.521,0.48,0.932h0.044c0.167-0.979,0.681-1.467,1.538-1.467
		c0.574,0,1.022,0.195,1.345,0.582c0.322,0.393,0.483,0.935,0.483,1.632v2.237H41.591L41.591,201.938z M44.342,201.191v-1.23
		c0-0.527-0.083-0.906-0.248-1.138c-0.165-0.231-0.445-0.347-0.837-0.347c-0.36,0-0.62,0.129-0.78,0.387s-0.24,0.668-0.24,1.229v1.1
		H44.342L44.342,201.191z M44.975,201.191h2.404v-1.34c0-0.521-0.101-0.91-0.301-1.172c-0.2-0.271-0.516-0.396-0.942-0.396
		c-0.398,0-0.691,0.134-0.879,0.398c-0.188,0.271-0.281,0.676-0.281,1.228L44.975,201.191L44.975,201.191z"/>
	<path fill="#FFFFFF" d="M48.016,192.068l-2.043,0.8v2.575l2.043,0.791v0.756l-6.451-2.54v-0.628l6.451-2.527V192.068z
		 M45.3,193.102l-1.991,0.746c-0.252,0.104-0.561,0.196-0.927,0.299c0.281,0.064,0.59,0.158,0.927,0.277l1.991,0.756V193.102z"/>
	<path fill="#FFFFFF" d="M45.344,189.664h2.672v0.747h-6.425v-1.763c0-0.787,0.151-1.369,0.453-1.748
		c0.302-0.377,0.756-0.563,1.361-0.563c0.851,0,1.425,0.433,1.724,1.292l2.887-1.745v0.884l-2.672,1.563V189.664z M44.703,189.664
		v-1.023c0-0.521-0.104-0.914-0.314-1.16c-0.209-0.246-0.522-0.369-0.942-0.369c-0.425,0-0.73,0.125-0.918,0.375
		s-0.28,0.652-0.28,1.207v0.979L44.703,189.664L44.703,189.664z"/>
	<path fill="#FFFFFF" d="M45.937,185.361h-0.668v-2.157h0.668V185.361z"/>
	<path fill="#FFFFFF" d="M41.591,181.952v-1.815c0-0.853,0.127-1.469,0.382-1.85c0.255-0.381,0.658-0.571,1.208-0.571
		c0.381,0,0.695,0.106,0.942,0.319c0.248,0.212,0.407,0.521,0.48,0.929h0.044c0.167-0.976,0.681-1.463,1.538-1.463
		c0.574,0,1.022,0.194,1.345,0.582c0.322,0.39,0.483,0.931,0.483,1.628v2.241H41.591z M44.342,181.205v-1.23
		c0-0.521-0.083-0.906-0.248-1.138c-0.165-0.231-0.445-0.347-0.837-0.347c-0.36,0-0.62,0.129-0.78,0.387s-0.24,0.668-0.24,1.23
		v1.099L44.342,181.205L44.342,181.205z M44.975,181.205h2.404v-1.34c0-0.521-0.101-0.909-0.301-1.172
		c-0.2-0.262-0.516-0.396-0.942-0.396c-0.398,0-0.691,0.137-0.879,0.402c-0.188,0.265-0.281,0.676-0.281,1.224L44.975,181.205
		L44.975,181.205z"/>
</g>
<g>
	<path fill="#FFFFFF" d="M218.308,218.457c0.565,0,1.006,0.205,1.323,0.615c0.316,0.41,0.475,0.967,0.475,1.67
		c0,0.762-0.098,1.348-0.294,1.758h-0.721c0.111-0.264,0.199-0.551,0.264-0.861c0.065-0.31,0.098-0.617,0.098-0.923
		c0-0.498-0.095-0.873-0.284-1.125c-0.188-0.252-0.452-0.378-0.789-0.378c-0.224,0-0.405,0.045-0.547,0.135
		c-0.143,0.09-0.273,0.238-0.394,0.447c-0.12,0.21-0.256,0.528-0.409,0.956c-0.214,0.599-0.467,1.024-0.76,1.281
		c-0.293,0.256-0.675,0.384-1.146,0.384c-0.495,0-0.89-0.186-1.183-0.559c-0.293-0.371-0.44-0.863-0.44-1.479
		c0-0.64,0.117-1.229,0.352-1.762l0.65,0.229c-0.224,0.525-0.334,1.046-0.334,1.548c0,0.396,0.085,0.705,0.255,0.933
		c0.17,0.222,0.406,0.334,0.708,0.334c0.223,0,0.405-0.041,0.547-0.123c0.143-0.082,0.272-0.226,0.392-0.416
		c0.118-0.194,0.25-0.493,0.394-0.896c0.24-0.678,0.498-1.142,0.772-1.396C217.511,218.584,217.868,218.457,218.308,218.457z"/>
	<path fill="#FFFFFF" d="M220.017,217.143h-6.425v-0.746h6.425V217.143z"/>
	<path fill="#FFFFFF" d="M216.743,209.505c1.061,0,1.871,0.288,2.432,0.863c0.562,0.575,0.842,1.403,0.842,2.485v1.771h-6.425v-1.97
		c0-0.998,0.277-1.771,0.831-2.328C214.977,209.781,215.75,209.505,216.743,209.505z M216.77,210.296
		c-0.838,0-1.469,0.21-1.894,0.631s-0.638,1.046-0.638,1.874v1.086h5.134v-0.91c0-0.892-0.22-1.561-0.657-2.009
		C218.277,210.52,217.628,210.296,216.77,210.296z"/>
	<path fill="#FFFFFF" d="M220.017,204.491v3.582h-6.425v-3.582h0.664v2.834h2.07v-2.663h0.658v2.663h2.364v-2.834H220.017z"/>
	<path fill="#FFFFFF" d="M213.592,203.066v-1.814c0-0.854,0.127-1.469,0.382-1.85c0.255-0.381,0.658-0.571,1.208-0.571
		c0.381,0,0.695,0.106,0.942,0.319c0.248,0.211,0.408,0.521,0.48,0.929h0.044c0.167-0.976,0.681-1.463,1.538-1.463
		c0.574,0,1.022,0.194,1.346,0.582c0.321,0.389,0.482,0.931,0.482,1.628v2.24H213.592L213.592,203.066z M216.343,202.32v-1.23
		c0-0.527-0.083-0.906-0.248-1.138c-0.165-0.231-0.445-0.347-0.837-0.347c-0.36,0-0.62,0.129-0.78,0.387s-0.24,0.668-0.24,1.23
		v1.098H216.343L216.343,202.32z M216.976,202.32h2.404v-1.34c0-0.521-0.101-0.91-0.301-1.172c-0.2-0.271-0.516-0.396-0.942-0.396
		c-0.398,0-0.691,0.134-0.879,0.398c-0.188,0.271-0.281,0.68-0.281,1.228L216.976,202.32L216.976,202.32z"/>
	<path fill="#FFFFFF" d="M220.017,193.197l-2.043,0.8v2.575l2.043,0.791v0.756l-6.451-2.54v-0.628l6.451-2.527V193.197z
		 M217.301,194.23l-1.991,0.746c-0.252,0.098-0.561,0.188-0.927,0.299c0.281,0.062,0.59,0.158,0.927,0.271l1.991,0.763V194.23z"/>
	<path fill="#FFFFFF" d="M217.345,190.793h2.672v0.747h-6.425v-1.763c0-0.787,0.151-1.369,0.453-1.746
		c0.302-0.377,0.756-0.564,1.362-0.564c0.85,0,1.424,0.432,1.723,1.292l2.887-1.745v0.883l-2.672,1.563V190.793z M216.704,190.793
		v-1.023c0-0.521-0.104-0.914-0.314-1.16c-0.209-0.238-0.522-0.361-0.942-0.361c-0.425,0-0.73,0.125-0.918,0.376
		c-0.188,0.25-0.28,0.646-0.28,1.206v0.971L216.704,190.793L216.704,190.793z"/>
	<path fill="#FFFFFF" d="M217.938,186.491h-0.668v-2.158h0.668V186.491z"/>
	<path fill="#FFFFFF" d="M220.017,179.042l-2.043,0.8v2.575l2.043,0.791v0.756l-6.451-2.54v-0.628l6.451-2.526V179.042z
		 M217.301,180.075l-1.991,0.747c-0.252,0.097-0.561,0.195-0.927,0.299c0.281,0.064,0.59,0.156,0.927,0.277l1.991,0.756V180.075z"/>
</g>
<g>
	<path fill="#FFFFFF" d="M249.702,218.327c0.564,0,1.007,0.205,1.322,0.614c0.315,0.41,0.476,0.968,0.476,1.67
		c0,0.763-0.101,1.349-0.295,1.759h-0.722c0.111-0.265,0.199-0.552,0.265-0.861c0.063-0.309,0.098-0.616,0.098-0.923
		c0-0.498-0.096-0.873-0.285-1.125c-0.188-0.252-0.451-0.378-0.787-0.378c-0.224,0-0.404,0.045-0.549,0.135
		c-0.141,0.091-0.271,0.238-0.393,0.447c-0.12,0.21-0.256,0.528-0.408,0.956c-0.215,0.6-0.468,1.023-0.761,1.281
		c-0.293,0.256-0.676,0.384-1.147,0.384c-0.494,0-0.889-0.187-1.182-0.56c-0.293-0.371-0.439-0.863-0.439-1.479
		c0-0.644,0.117-1.229,0.353-1.765l0.649,0.229c-0.224,0.527-0.334,1.045-0.334,1.547c0,0.396,0.084,0.705,0.254,0.93
		c0.17,0.229,0.406,0.334,0.709,0.334c0.224,0,0.404-0.039,0.547-0.121c0.144-0.08,0.271-0.221,0.393-0.416
		c0.118-0.189,0.25-0.488,0.394-0.896c0.24-0.675,0.498-1.139,0.772-1.396C248.904,218.454,249.262,218.327,249.702,218.327z"/>
	<path fill="#FFFFFF" d="M251.412,217.014h-6.427v-0.746h6.427V217.014z"/>
	<path fill="#FFFFFF" d="M248.137,209.375c1.062,0,1.872,0.288,2.434,0.863c0.562,0.574,0.843,1.402,0.843,2.484v1.771h-6.427
		v-1.974c0-0.998,0.277-1.771,0.832-2.326C246.372,209.65,247.145,209.375,248.137,209.375z M248.164,210.166
		c-0.838,0-1.47,0.21-1.896,0.631c-0.424,0.421-0.637,1.046-0.637,1.874v1.085h5.133v-0.908c0-0.893-0.219-1.562-0.656-2.01
		C249.67,210.393,249.021,210.166,248.164,210.166z"/>
	<path fill="#FFFFFF" d="M251.412,204.361v3.582h-6.427v-3.582h0.664v2.834h2.07v-2.663h0.659v2.663h2.365v-2.834H251.412z"/>
	<path fill="#FFFFFF" d="M244.986,202.938v-1.812c0-0.854,0.127-1.472,0.383-1.853c0.255-0.381,0.656-0.568,1.208-0.568
		c0.381,0,0.694,0.104,0.94,0.316c0.248,0.211,0.408,0.521,0.482,0.932h0.043c0.168-0.979,0.68-1.467,1.539-1.467
		c0.573,0,1.021,0.195,1.344,0.582c0.322,0.393,0.484,0.935,0.484,1.632v2.237H244.986L244.986,202.938z M247.736,202.189v-1.229
		c0-0.526-0.082-0.905-0.248-1.138c-0.163-0.231-0.443-0.348-0.836-0.348c-0.359,0-0.619,0.129-0.779,0.387
		c-0.16,0.259-0.24,0.668-0.24,1.229v1.1H247.736L247.736,202.189z M248.371,202.189h2.401v-1.34c0-0.521-0.101-0.91-0.301-1.18
		c-0.199-0.262-0.515-0.396-0.941-0.396c-0.397,0-0.69,0.137-0.879,0.396c-0.188,0.271-0.28,0.676-0.28,1.229V202.189
		L248.371,202.189z"/>
	<path fill="#FFFFFF" d="M251.412,193.066l-2.044,0.801v2.574l2.044,0.791v0.756l-6.452-2.539v-0.629l6.452-2.526V193.066z
		 M248.695,194.102l-1.989,0.746c-0.252,0.104-0.562,0.195-0.929,0.299c0.281,0.063,0.592,0.158,0.929,0.276l1.989,0.757V194.102z"
		/>
	<path fill="#FFFFFF" d="M248.74,190.663h2.672v0.747h-6.427v-1.764c0-0.787,0.152-1.369,0.453-1.746
		c0.304-0.377,0.756-0.563,1.362-0.563c0.851,0,1.425,0.433,1.724,1.292l2.889-1.745v0.884l-2.672,1.563L248.74,190.663
		L248.74,190.663z M248.098,190.663v-1.022c0-0.521-0.104-0.914-0.313-1.16s-0.523-0.369-0.942-0.369
		c-0.425,0-0.731,0.125-0.918,0.375c-0.188,0.25-0.28,0.652-0.28,1.207v0.978L248.098,190.663L248.098,190.663z"/>
	<path fill="#FFFFFF" d="M249.332,186.361h-0.668v-2.158h0.668V186.361z"/>
	<path fill="#FFFFFF" d="M244.986,182.951v-1.814c0-0.854,0.127-1.47,0.383-1.851c0.255-0.382,0.656-0.571,1.208-0.571
		c0.381,0,0.694,0.105,0.94,0.319c0.248,0.212,0.408,0.521,0.482,0.929h0.043c0.168-0.977,0.68-1.463,1.539-1.463
		c0.573,0,1.021,0.193,1.344,0.582c0.322,0.391,0.484,0.932,0.484,1.628v2.241H244.986L244.986,182.951z M247.736,182.204v-1.229
		c0-0.521-0.082-0.906-0.248-1.139c-0.163-0.23-0.443-0.348-0.836-0.348c-0.359,0-0.619,0.13-0.779,0.388s-0.24,0.668-0.24,1.229
		v1.1L247.736,182.204L247.736,182.204z M248.371,182.204h2.401v-1.341c0-0.521-0.101-0.908-0.301-1.17
		c-0.199-0.264-0.515-0.396-0.941-0.396c-0.397,0-0.69,0.135-0.879,0.401c-0.188,0.266-0.28,0.676-0.28,1.224V182.204
		L248.371,182.204z"/>
</g>
<g>
	<path fill="#FFFFFF" d="M296.514,11.531c0,0.817-0.297,1.454-0.89,1.911c-0.595,0.457-1.396,0.686-2.412,0.686
		c-1.103,0-1.946-0.142-2.539-0.425v-1.041c0.382,0.161,0.796,0.288,1.244,0.381c0.446,0.093,0.894,0.14,1.333,0.14
		c0.721,0,1.262-0.136,1.625-0.41c0.361-0.272,0.546-0.652,0.546-1.139c0-0.322-0.063-0.585-0.192-0.791
		c-0.129-0.205-0.346-0.395-0.646-0.568c-0.306-0.173-0.767-0.37-1.381-0.59c-0.863-0.309-1.479-0.675-1.854-1.098
		c-0.371-0.423-0.562-0.976-0.562-1.657c0-0.715,0.271-1.284,0.812-1.708c0.531-0.424,1.248-0.635,2.133-0.635
		c0.929,0,1.771,0.169,2.545,0.508l-0.336,0.939c-0.771-0.322-1.51-0.482-2.229-0.482c-0.568,0-1.021,0.123-1.34,0.368
		c-0.321,0.246-0.479,0.586-0.479,1.022c0,0.322,0.062,0.585,0.178,0.79c0.119,0.206,0.316,0.394,0.604,0.565
		c0.28,0.171,0.713,0.36,1.292,0.568c0.978,0.347,1.646,0.719,2.015,1.117C296.336,10.38,296.514,10.896,296.514,11.531z"/>
	<path fill="#FFFFFF" d="M298.162,5.158c0-0.241,0.061-0.418,0.179-0.53c0.118-0.112,0.271-0.168,0.443-0.168
		c0.169,0,0.312,0.057,0.438,0.171c0.123,0.114,0.188,0.29,0.188,0.527c0,0.237-0.062,0.414-0.188,0.53
		c-0.121,0.117-0.27,0.175-0.438,0.175c-0.179,0-0.325-0.058-0.443-0.175S298.162,5.395,298.162,5.158z M299.307,14h-1.055V7.043
		h1.055V14z"/>
	<path fill="#FFFFFF" d="M306.275,13.067h-0.062c-0.479,0.707-1.215,1.06-2.185,1.06c-0.909,0-1.617-0.311-2.123-0.933
		c-0.508-0.622-0.763-1.506-0.763-2.653s0.259-2.038,0.767-2.672c0.509-0.634,1.215-0.952,2.119-0.952
		c0.938,0,1.668,0.343,2.172,1.028h0.082l-0.045-0.501l-0.024-0.489V4.124h1.062V14h-0.855L306.275,13.067z M304.168,13.245
		c0.721,0,1.24-0.196,1.563-0.587c0.316-0.391,0.479-1.023,0.479-1.895v-0.222c0-0.986-0.16-1.689-0.488-2.111
		c-0.32-0.421-0.854-0.631-1.564-0.631c-0.617,0-1.09,0.24-1.418,0.72s-0.491,1.159-0.491,2.035c0,0.889,0.161,1.56,0.487,2.012
		C303.059,13.018,303.536,13.245,304.168,13.245z"/>
	<path fill="#FFFFFF" d="M312.445,14.127c-1.028,0-1.84-0.313-2.438-0.939c-0.596-0.626-0.893-1.496-0.893-2.609
		c0-1.122,0.271-2.012,0.825-2.672c0.555-0.66,1.297-0.99,2.229-0.99c0.871,0,1.562,0.287,2.068,0.86
		c0.508,0.573,0.762,1.33,0.762,2.269v0.667h-4.791c0.021,0.817,0.229,1.437,0.617,1.86c0.392,0.423,0.938,0.635,1.646,0.635
		c0.75,0,1.49-0.157,2.229-0.47v0.939c-0.373,0.161-0.729,0.276-1.062,0.346C313.314,14.092,312.913,14.127,312.445,14.127z
		 M312.158,7.798c-0.562,0-1.005,0.182-1.336,0.546c-0.332,0.364-0.527,0.868-0.587,1.511h3.637c0-0.665-0.147-1.173-0.442-1.527
		C313.133,7.975,312.709,7.798,312.158,7.798z"/>
	<path fill="#FFFFFF" d="M320.036,6.929c0.914,0,1.624,0.312,2.13,0.937c0.507,0.624,0.759,1.507,0.759,2.65
		s-0.255,2.03-0.766,2.663c-0.51,0.633-1.219,0.949-2.123,0.949c-0.452,0-0.865-0.083-1.24-0.251
		c-0.374-0.167-0.688-0.424-0.94-0.771h-0.07L317.557,14H316.8V4.123h1.054v2.399c0,0.538-0.017,1.02-0.051,1.447h0.051
		C318.346,7.276,319.072,6.929,320.036,6.929z M319.885,7.811c-0.721,0-1.229,0.207-1.557,0.619
		c-0.314,0.413-0.479,1.108-0.479,2.085s0.162,1.677,0.486,2.098c0.324,0.421,0.854,0.631,1.566,0.631
		c0.646,0,1.13-0.236,1.438-0.708c0.316-0.472,0.479-1.15,0.479-2.035c0-0.906-0.158-1.581-0.479-2.025
		C321.037,8.032,320.549,7.811,319.885,7.811z"/>
	<path fill="#FFFFFF" d="M329.044,14l-0.21-0.99h-0.052c-0.354,0.436-0.691,0.731-1.037,0.886c-0.346,0.154-0.774,0.231-1.292,0.231
		c-0.688,0-1.229-0.178-1.621-0.533c-0.394-0.354-0.588-0.861-0.588-1.517c0-1.405,1.124-2.141,3.37-2.209l1.183-0.038V9.398
		c0-0.546-0.117-0.949-0.354-1.209c-0.233-0.26-0.608-0.39-1.127-0.39c-0.58,0-1.234,0.178-1.975,0.533l-0.316-0.806
		c0.344-0.186,0.719-0.332,1.127-0.438c0.4-0.106,0.812-0.159,1.229-0.159c0.829,0,1.443,0.184,1.844,0.552
		c0.401,0.368,0.604,0.958,0.604,1.771V14H329.044z M326.663,13.257c0.654,0,1.172-0.18,1.546-0.54
		c0.375-0.36,0.562-0.863,0.562-1.511v-0.628l-1.062,0.044c-0.839,0.03-1.438,0.16-1.812,0.391c-0.367,0.23-0.562,0.589-0.562,1.076
		c0,0.381,0.113,0.671,0.349,0.87C325.925,13.158,326.248,13.257,326.663,13.257z"/>
	<path fill="#FFFFFF" d="M335.17,6.916c0.309,0,0.586,0.025,0.832,0.076l-0.146,0.978c-0.287-0.062-0.541-0.095-0.77-0.095
		c-0.562,0-1.044,0.229-1.438,0.686c-0.396,0.457-0.604,1.026-0.604,1.708V14h-1.055V7.043h0.869l0.121,1.289h0.051
		c0.259-0.453,0.562-0.802,0.935-1.047C334.334,7.039,334.734,6.916,335.17,6.916z"/>
	<path fill="#FFFFFF" d="M341,14V4.72h1.079v8.303h4.095V14H341z"/>
	<path fill="#FFFFFF" d="M351.866,14l-0.21-0.99h-0.051c-0.354,0.436-0.692,0.731-1.037,0.886c-0.354,0.154-0.774,0.231-1.292,0.231
		c-0.688,0-1.229-0.178-1.622-0.533c-0.396-0.354-0.587-0.861-0.587-1.517c0-1.405,1.124-2.141,3.37-2.209l1.182-0.038V9.398
		c0-0.546-0.117-0.949-0.354-1.209c-0.229-0.26-0.604-0.39-1.127-0.39c-0.58,0-1.229,0.178-1.968,0.533l-0.324-0.806
		c0.354-0.186,0.729-0.332,1.127-0.438c0.408-0.106,0.818-0.159,1.229-0.159c0.829,0,1.444,0.184,1.845,0.552
		c0.399,0.368,0.604,0.958,0.604,1.771V14H351.866z M349.487,13.257c0.646,0,1.171-0.18,1.545-0.54
		c0.375-0.36,0.562-0.863,0.562-1.511v-0.628l-1.056,0.044c-0.838,0.03-1.44,0.16-1.812,0.391c-0.359,0.23-0.556,0.589-0.556,1.076
		c0,0.381,0.114,0.671,0.346,0.87C348.748,13.158,349.072,13.257,349.487,13.257z"/>
	<path fill="#FFFFFF" d="M353.715,7.043h1.13l1.522,3.967c0.334,0.906,0.542,1.56,0.622,1.961h0.052
		c0.055-0.216,0.17-0.585,0.346-1.107c0.187-0.523,0.75-2.13,1.729-4.821h1.13l-2.988,7.922c-0.297,0.783-0.644,1.338-1.038,1.666
		c-0.396,0.328-0.882,0.492-1.457,0.492c-0.312,0-0.64-0.036-0.952-0.108v-0.844c0.232,0.051,0.493,0.076,0.781,0.076
		c0.729,0,1.238-0.406,1.549-1.219l0.396-0.99L353.715,7.043z"/>
	<path fill="#FFFFFF" d="M367.375,10.515c0,1.134-0.286,2.02-0.855,2.657c-0.562,0.637-1.354,0.955-2.358,0.955
		c-0.622,0-1.186-0.146-1.656-0.438c-0.48-0.292-0.854-0.711-1.117-1.257c-0.263-0.546-0.394-1.185-0.394-1.917
		c0-1.134,0.272-2.018,0.851-2.65c0.566-0.633,1.354-0.949,2.36-0.949c0.975,0,1.747,0.324,2.312,0.971
		C367.088,8.534,367.375,9.411,367.375,10.515z M362.074,10.515c0,0.889,0.179,1.566,0.533,2.031
		c0.354,0.465,0.878,0.698,1.562,0.698c0.688,0,1.214-0.232,1.57-0.695c0.354-0.464,0.536-1.142,0.536-2.035
		c0-0.884-0.188-1.556-0.536-2.015c-0.356-0.459-0.888-0.689-1.584-0.689c-0.688,0-1.21,0.227-1.562,0.679
		C362.247,8.941,362.074,9.618,362.074,10.515z"/>
	<path fill="#FFFFFF" d="M370.212,7.043v4.513c0,0.567,0.129,0.99,0.387,1.27c0.27,0.279,0.663,0.419,1.214,0.419
		c0.729,0,1.27-0.199,1.604-0.597c0.337-0.398,0.506-1.047,0.506-1.949V7.043h1.053V14h-0.867l-0.146-0.933H373.9
		c-0.22,0.343-0.519,0.605-0.896,0.787c-0.38,0.182-0.82,0.273-1.312,0.273c-0.85,0-1.479-0.201-1.896-0.603
		s-0.633-1.045-0.633-1.93V7.043H370.212z"/>
	<path fill="#FFFFFF" d="M379.448,13.257c0.188,0,0.366-0.014,0.54-0.042c0.173-0.027,0.312-0.056,0.412-0.085v0.806
		c-0.114,0.055-0.282,0.101-0.516,0.137c-0.223,0.036-0.422,0.054-0.601,0.054c-1.347,0-2.021-0.709-2.021-2.126V7.862h-0.989V7.354
		l0.989-0.438l0.439-1.485h0.607v1.612h2.021v0.819h-2.021v4.094c0,0.419,0.102,0.741,0.3,0.965
		C378.827,13.145,379.102,13.257,379.448,13.257z"/>
	<path fill="#FFFFFF" d="M386.278,12.102c0,0.647-0.242,1.147-0.729,1.498c-0.479,0.351-1.159,0.527-2.021,0.527
		c-0.933,0-1.646-0.146-2.158-0.438v-0.978c0.335,0.169,0.688,0.303,1.076,0.4c0.383,0.097,0.752,0.146,1.104,0.146
		c0.551,0,0.979-0.088,1.271-0.263c0.297-0.176,0.438-0.443,0.438-0.803c0-0.271-0.118-0.502-0.354-0.695
		c-0.234-0.193-0.692-0.42-1.374-0.683c-0.647-0.241-1.107-0.452-1.381-0.632c-0.272-0.18-0.479-0.384-0.609-0.612
		c-0.134-0.229-0.199-0.501-0.199-0.819c0-0.567,0.229-1.015,0.691-1.342c0.461-0.328,1.095-0.492,1.896-0.492
		c0.749,0,1.48,0.152,2.195,0.457l-0.375,0.857c-0.696-0.288-1.329-0.432-1.896-0.432c-0.5,0-0.879,0.078-1.134,0.235
		c-0.254,0.157-0.381,0.373-0.381,0.647c0,0.186,0.048,0.345,0.146,0.476c0.096,0.131,0.249,0.256,0.461,0.375
		c0.211,0.119,0.609,0.29,1.219,0.514c0.824,0.3,1.383,0.603,1.673,0.908C386.132,11.258,386.278,11.641,386.278,12.102z"/>
</g>
<rect id="sidebar-a_10_" x="290" y="30" opacity="0.2" fill="#FFFFFF" enable-background="new    " width="9" height="50"/>
<rect id="sidebar-b_5_" x="304" y="30" opacity="0.2" fill="#FFFFFF" enable-background="new    " width="9" height="50"/>
<rect id="content_12_" x="318" y="30" opacity="0.05" fill="#FFFFFF" enable-background="new    " width="40" height="50"/>
<rect id="sidebar-a_9_" x="432" y="30" opacity="0.2" fill="#FFFFFF" enable-background="new    " width="9" height="50"/>
<rect id="sidebar-b_4_" x="446" y="30" opacity="0.2" fill="#FFFFFF" enable-background="new    " width="9" height="50"/>
<rect id="content_11_" x="388" y="30" opacity="0.05" fill="#FFFFFF" enable-background="new    " width="39" height="50"/>
<rect id="sidebar-a_8_" x="481" y="30" opacity="0.2" fill="#FFFFFF" enable-background="new    " width="9" height="50"/>
<rect id="sidebar-b_3_" x="541" y="30" opacity="0.2" fill="#FFFFFF" enable-background="new    " width="9" height="50"/>
<rect id="content_10_" x="495" y="30" opacity="0.05" fill="#FFFFFF" enable-background="new    " width="41" height="50"/>
<rect id="sidebar-a_7_" x="290" y="101" opacity="0.2" fill="#FFFFFF" enable-background="new    " width="9" height="50"/>
<rect id="content_9_" x="304" y="101" opacity="0.05" fill="#FFFFFF" enable-background="new    " width="53" height="50"/>
<rect id="sidebar-a_6_" x="446" y="101" opacity="0.2" fill="#FFFFFF" enable-background="new    " width="9" height="50"/>
<rect id="content_8_" x="388" y="101" opacity="0.05" fill="#FFFFFF" enable-background="new    " width="53" height="50"/>
<rect id="content_7_" x="482" y="101" opacity="0.05" fill="#FFFFFF" enable-background="new    " width="68" height="50"/>
<g>
	<path fill="#FFFFFF" d="M103.477,238.75l-2.18-5.695h-0.035c0.041,0.451,0.062,0.987,0.062,1.608v4.087h-0.69v-6.425h1.125
		l2.035,5.3h0.035l2.052-5.3h1.116v6.425h-0.747v-4.141c0-0.479,0.021-0.989,0.062-1.547h-0.035l-2.196,5.688H103.477z"/>
	<path fill="#FFFFFF" d="M112.797,238.75l-0.8-2.043h-2.575l-0.791,2.043h-0.756l2.54-6.451h0.628l2.526,6.451H112.797z
		 M111.765,236.034l-0.747-1.991c-0.097-0.251-0.196-0.561-0.299-0.927c-0.064,0.28-0.157,0.591-0.277,0.927l-0.756,1.991H111.765z"
		/>
	<path fill="#FFFFFF" d="M114.454,238.75v-6.425h0.747v6.425H114.454z"/>
	<path fill="#FFFFFF" d="M121.982,238.75h-0.853l-3.511-5.393h-0.035c0.047,0.633,0.069,1.213,0.069,1.74v3.646h-0.689v-6.429h0.844
		l3.502,5.367h0.035c-0.006-0.076-0.019-0.332-0.04-0.763c-0.021-0.43-0.028-0.735-0.021-0.922v-3.688h0.698L121.982,238.75
		L121.982,238.75z"/>
	<path fill="#FFFFFF" d="M123.234,236.672v-0.668h2.158v0.668H123.234z"/>
	<path fill="#FFFFFF" d="M126.645,232.325h1.815c0.853,0,1.469,0.128,1.85,0.382c0.381,0.256,0.571,0.658,0.571,1.209
		c0,0.381-0.106,0.695-0.319,0.941c-0.212,0.248-0.521,0.408-0.929,0.479v0.044c0.976,0.167,1.463,0.683,1.463,1.538
		c0,0.574-0.194,1.021-0.582,1.348c-0.389,0.319-0.931,0.48-1.628,0.48h-2.241V232.325z M127.392,235.076h1.23
		c0.526,0,0.906-0.083,1.138-0.248c0.231-0.166,0.347-0.444,0.347-0.838c0-0.359-0.129-0.62-0.387-0.779
		c-0.258-0.16-0.668-0.24-1.229-0.24h-1.1L127.392,235.076L127.392,235.076z M127.392,235.709v2.404h1.34
		c0.52,0,0.909-0.104,1.171-0.303c0.263-0.199,0.395-0.521,0.395-0.941c0-0.398-0.134-0.691-0.402-0.879
		c-0.268-0.188-0.676-0.281-1.224-0.281H127.392L127.392,235.709z"/>
	<path fill="#FFFFFF" d="M138.053,235.529c0,1.027-0.26,1.836-0.78,2.426c-0.52,0.588-1.243,0.883-2.168,0.883
		c-0.945,0-1.676-0.289-2.19-0.867s-0.771-1.396-0.771-2.451c0-1.045,0.258-1.854,0.773-2.432c0.516-0.576,1.248-0.863,2.196-0.863
		c0.924,0,1.645,0.293,2.162,0.879C137.793,233.689,138.053,234.498,138.053,235.529z M132.933,235.529
		c0,0.869,0.186,1.529,0.556,1.979c0.37,0.45,0.909,0.676,1.615,0.676c0.712,0,1.25-0.226,1.613-0.674
		c0.363-0.447,0.545-1.107,0.545-1.979c0-0.864-0.181-1.521-0.543-1.969c-0.362-0.445-0.896-0.67-1.606-0.67
		c-0.712,0-1.253,0.227-1.624,0.674C133.118,234.018,132.933,234.671,132.933,235.529z"/>
	<path fill="#FFFFFF" d="M141.463,238.75h-0.747v-5.762h-2.035v-0.663h4.816v0.663h-2.035L141.463,238.75L141.463,238.75z"/>
	<path fill="#FFFFFF" d="M146.442,238.75h-0.747v-5.762h-2.034v-0.663h4.815v0.663h-2.035L146.442,238.75L146.442,238.75z"/>
	<path fill="#FFFFFF" d="M155.02,235.529c0,1.027-0.26,1.836-0.779,2.426c-0.521,0.588-1.243,0.883-2.169,0.883
		c-0.945,0-1.676-0.289-2.19-0.867c-0.514-0.578-0.771-1.396-0.771-2.451c0-1.045,0.259-1.854,0.773-2.432
		c0.516-0.576,1.248-0.863,2.197-0.863c0.923,0,1.644,0.293,2.162,0.879C154.76,233.689,155.02,234.498,155.02,235.529z
		 M149.9,235.529c0,0.869,0.186,1.529,0.557,1.979c0.37,0.449,0.908,0.676,1.614,0.676c0.713,0,1.25-0.226,1.613-0.674
		c0.363-0.447,0.545-1.107,0.545-1.979c0-0.864-0.181-1.521-0.543-1.969c-0.361-0.446-0.896-0.67-1.605-0.67
		c-0.712,0-1.253,0.227-1.624,0.674C150.085,234.018,149.9,234.671,149.9,235.529z"/>
	<path fill="#FFFFFF" d="M159.296,238.75l-2.18-5.695h-0.035c0.041,0.451,0.062,0.987,0.062,1.608v4.087h-0.689v-6.425h1.125
		l2.034,5.3h0.035l2.053-5.3h1.115v6.425h-0.747v-4.141c0-0.479,0.021-0.989,0.062-1.547h-0.035l-2.197,5.688H159.296z"/>
</g>
<g>
	<path fill="#FFFFFF" d="M113.477,166.75l-2.18-5.695h-0.035c0.041,0.451,0.062,0.987,0.062,1.608v4.087h-0.69v-6.425h1.125
		l2.035,5.3h0.035l2.052-5.3h1.116v6.425h-0.747v-4.141c0-0.476,0.021-0.989,0.062-1.547h-0.035l-2.196,5.688H113.477z"/>
	<path fill="#FFFFFF" d="M122.797,166.75l-0.8-2.043h-2.575l-0.791,2.043h-0.756l2.54-6.451h0.628l2.526,6.451H122.797z
		 M121.765,164.034l-0.747-1.991c-0.097-0.251-0.196-0.561-0.299-0.927c-0.064,0.28-0.157,0.591-0.277,0.927l-0.756,1.991H121.765z"
		/>
	<path fill="#FFFFFF" d="M124.454,166.75v-6.425h0.747v6.425H124.454z"/>
	<path fill="#FFFFFF" d="M131.982,166.75h-0.853l-3.511-5.393h-0.035c0.047,0.633,0.069,1.213,0.069,1.74v3.65h-0.689v-6.425h0.844
		l3.502,5.368h0.035c-0.006-0.077-0.019-0.332-0.04-0.762c-0.021-0.43-0.028-0.736-0.021-0.922v-3.688h0.698L131.982,166.75
		L131.982,166.75z"/>
	<path fill="#FFFFFF" d="M133.234,164.672v-0.668h2.158v0.668H133.234z"/>
	<path fill="#FFFFFF" d="M138.622,166.75h-0.747v-5.762h-2.035v-0.663h4.815v0.663h-2.034L138.622,166.75L138.622,166.75z"/>
	<path fill="#FFFFFF" d="M147.2,163.529c0,1.027-0.261,1.836-0.78,2.426c-0.521,0.588-1.243,0.883-2.168,0.883
		c-0.946,0-1.676-0.289-2.191-0.867c-0.514-0.578-0.771-1.396-0.771-2.451c0-1.045,0.258-1.854,0.772-2.432
		c0.517-0.576,1.248-0.863,2.197-0.863c0.923,0,1.644,0.293,2.162,0.879C146.94,161.69,147.2,162.498,147.2,163.529z
		 M142.081,163.529c0,0.869,0.185,1.529,0.556,1.979c0.37,0.449,0.909,0.676,1.615,0.676c0.712,0,1.25-0.226,1.613-0.674
		c0.362-0.447,0.545-1.107,0.545-1.979c0-0.864-0.182-1.521-0.543-1.967c-0.362-0.447-0.897-0.67-1.606-0.67
		c-0.712,0-1.253,0.225-1.624,0.674C142.266,162.018,142.081,162.671,142.081,163.529z"/>
	<path fill="#FFFFFF" d="M152.707,162.197c0,0.65-0.223,1.15-0.666,1.501c-0.443,0.35-1.079,0.524-1.905,0.524h-0.756v2.525h-0.747
		v-6.425h1.666C151.904,160.325,152.707,160.949,152.707,162.197z M149.38,163.582h0.672c0.662,0,1.141-0.107,1.438-0.321
		c0.297-0.214,0.444-0.557,0.444-1.028c0-0.424-0.139-0.739-0.417-0.947c-0.278-0.208-0.712-0.313-1.301-0.313h-0.835V163.582
		L149.38,163.582z"/>
</g>
<g id="top-b_2_" opacity="0.1">
	<rect y="126" fill="#FFFFFF" width="260" height="22"/>
</g>
<g>
	<g>
		<path fill="#FFFFFF" d="M118.855,60h-0.746v-5.761h-2.035v-0.664h4.815v0.664h-2.035L118.855,60L118.855,60z"/>
		<path fill="#FFFFFF" d="M127.433,56.779c0,1.027-0.26,1.837-0.779,2.426c-0.521,0.589-1.243,0.883-2.168,0.883
			c-0.946,0-1.677-0.289-2.191-0.867c-0.514-0.578-0.771-1.396-0.771-2.451c0-1.045,0.259-1.856,0.773-2.432
			c0.516-0.576,1.248-0.863,2.197-0.863c0.923,0,1.644,0.293,2.162,0.879C127.173,54.94,127.433,55.748,127.433,56.779z
			 M122.313,56.779c0,0.869,0.186,1.529,0.557,1.979c0.37,0.45,0.909,0.675,1.615,0.675c0.712,0,1.25-0.225,1.612-0.672
			c0.363-0.449,0.545-1.109,0.545-1.982c0-0.864-0.181-1.521-0.543-1.967c-0.361-0.445-0.896-0.67-1.605-0.67
			c-0.712,0-1.253,0.226-1.624,0.674C122.498,55.268,122.313,55.92,122.313,56.779z"/>
		<path fill="#FFFFFF" d="M132.939,55.447c0,0.65-0.222,1.15-0.666,1.501c-0.442,0.35-1.078,0.524-1.904,0.524h-0.756V60h-0.747
			v-6.425h1.666C132.137,53.575,132.939,54.199,132.939,55.447z M129.614,56.832h0.672c0.662,0,1.141-0.107,1.437-0.321
			c0.296-0.214,0.444-0.557,0.444-1.028c0-0.424-0.139-0.74-0.417-0.948s-0.712-0.312-1.301-0.312h-0.835L129.614,56.832
			L129.614,56.832z"/>
		<path fill="#FFFFFF" d="M133.77,57.921v-0.668h2.158v0.668H133.77z"/>
		<path fill="#FFFFFF" d="M141.219,60l-0.8-2.043h-2.575L137.053,60h-0.756l2.54-6.451h0.628L141.992,60H141.219z M140.186,57.284
			l-0.747-1.991c-0.097-0.252-0.195-0.561-0.299-0.927c-0.063,0.28-0.156,0.59-0.276,0.927l-0.756,1.991H140.186z"/>
	</g>
	<g>
		<path fill="#FFFFFF" d="M118.786,88h-0.747v-5.761h-2.035v-0.664h4.816v0.664h-2.035L118.786,88L118.786,88z"/>
		<path fill="#FFFFFF" d="M127.365,84.779c0,1.027-0.261,1.837-0.78,2.426c-0.521,0.589-1.243,0.883-2.168,0.883
			c-0.946,0-1.676-0.289-2.191-0.867c-0.514-0.578-0.771-1.396-0.771-2.451c0-1.045,0.258-1.855,0.772-2.432
			c0.517-0.576,1.248-0.863,2.197-0.863c0.923,0,1.645,0.293,2.162,0.879C127.105,82.939,127.365,83.748,127.365,84.779z
			 M122.245,84.779c0,0.869,0.185,1.529,0.556,1.979c0.37,0.45,0.909,0.676,1.615,0.676c0.712,0,1.25-0.226,1.613-0.674
			c0.362-0.447,0.545-1.107,0.545-1.98c0-0.864-0.182-1.521-0.543-1.967c-0.362-0.445-0.897-0.67-1.606-0.67
			c-0.712,0-1.253,0.226-1.624,0.674C122.43,83.268,122.245,83.92,122.245,84.779z"/>
		<path fill="#FFFFFF" d="M132.871,83.447c0,0.65-0.222,1.15-0.666,1.501c-0.443,0.35-1.079,0.524-1.905,0.524h-0.756V88h-0.747
			v-6.425h1.666C132.069,81.575,132.871,82.199,132.871,83.447z M129.544,84.832h0.672c0.662,0,1.142-0.107,1.438-0.321
			c0.296-0.214,0.443-0.557,0.443-1.028c0-0.424-0.139-0.739-0.417-0.947c-0.277-0.208-0.712-0.313-1.301-0.313h-0.835V84.832
			L129.544,84.832z"/>
		<path fill="#FFFFFF" d="M133.701,85.921v-0.668h2.158v0.668H133.701z"/>
		<path fill="#FFFFFF" d="M137.113,81.575h1.814c0.854,0,1.469,0.127,1.851,0.382c0.381,0.255,0.57,0.658,0.57,1.208
			c0,0.381-0.105,0.694-0.318,0.942c-0.212,0.248-0.522,0.408-0.93,0.479v0.044c0.977,0.167,1.463,0.682,1.463,1.538
			c0,0.574-0.193,1.021-0.582,1.347c-0.389,0.32-0.931,0.481-1.628,0.481h-2.24V81.575z M137.86,84.326h1.229
			c0.527,0,0.907-0.083,1.138-0.248s0.348-0.445,0.348-0.837c0-0.36-0.129-0.62-0.388-0.78c-0.258-0.16-0.668-0.24-1.229-0.24
			h-1.099L137.86,84.326L137.86,84.326z M137.86,84.959v2.404h1.34c0.519,0,0.909-0.1,1.171-0.301
			c0.262-0.201,0.394-0.517,0.394-0.942c0-0.397-0.134-0.69-0.401-0.879c-0.269-0.189-0.677-0.281-1.225-0.281L137.86,84.959
			L137.86,84.959z"/>
	</g>
	<path fill="#FFFFFF" d="M118.786,115h-0.747v-5.761h-2.035v-0.664h4.816v0.664h-2.035L118.786,115L118.786,115z"/>
	<path fill="#FFFFFF" d="M127.365,111.779c0,1.027-0.261,1.837-0.78,2.426c-0.521,0.589-1.243,0.883-2.168,0.883
		c-0.946,0-1.676-0.289-2.191-0.867c-0.514-0.578-0.771-1.396-0.771-2.451c0-1.045,0.258-1.855,0.772-2.432
		c0.517-0.576,1.248-0.863,2.197-0.863c0.923,0,1.645,0.293,2.162,0.879C127.105,109.939,127.365,110.748,127.365,111.779z
		 M122.245,111.779c0,0.869,0.185,1.529,0.556,1.979c0.37,0.45,0.909,0.676,1.615,0.676c0.712,0,1.25-0.226,1.613-0.674
		c0.362-0.447,0.545-1.107,0.545-1.979c0-0.864-0.182-1.521-0.543-1.967c-0.362-0.445-0.897-0.67-1.606-0.67
		c-0.712,0-1.253,0.226-1.624,0.674C122.43,110.268,122.245,110.92,122.245,111.779z"/>
	<path fill="#FFFFFF" d="M132.871,110.447c0,0.65-0.222,1.15-0.666,1.501c-0.443,0.35-1.079,0.524-1.905,0.524h-0.756V115h-0.747
		v-6.425h1.666C132.069,108.575,132.871,109.199,132.871,110.447z M129.544,111.832h0.672c0.662,0,1.142-0.107,1.438-0.321
		c0.296-0.214,0.443-0.557,0.443-1.028c0-0.424-0.139-0.739-0.417-0.947c-0.277-0.208-0.712-0.313-1.301-0.313h-0.835V111.832
		L129.544,111.832z"/>
	<path fill="#FFFFFF" d="M133.701,112.921v-0.668h2.158v0.668H133.701z"/>
	<g enable-background="new    ">
		<path fill="#FFFFFF" d="M141.425,108.983c-0.764,0-1.367,0.254-1.809,0.763c-0.442,0.509-0.663,1.205-0.663,2.089
			c0,0.91,0.213,1.613,0.639,2.108c0.426,0.496,1.034,0.744,1.823,0.744c0.485,0,1.038-0.087,1.659-0.261v0.708
			c-0.482,0.181-1.076,0.271-1.783,0.271c-1.023,0-1.813-0.312-2.37-0.932c-0.557-0.621-0.834-1.504-0.834-2.647
			c0-0.717,0.134-1.344,0.402-1.883c0.268-0.539,0.653-0.954,1.16-1.245c0.506-0.292,1.101-0.438,1.784-0.438
			c0.729,0,1.366,0.133,1.911,0.399l-0.342,0.693C142.477,109.106,141.95,108.983,141.425,108.983z"/>
	</g>
	<path fill="#FFFFFF" d="M118.786,141h-0.747v-5.761h-2.035v-0.664h4.816v0.664h-2.035L118.786,141L118.786,141z"/>
	<path fill="#FFFFFF" d="M127.365,137.779c0,1.027-0.261,1.837-0.78,2.426c-0.521,0.589-1.243,0.883-2.168,0.883
		c-0.946,0-1.676-0.289-2.191-0.867c-0.514-0.578-0.771-1.396-0.771-2.451c0-1.045,0.258-1.855,0.772-2.432
		c0.517-0.576,1.248-0.863,2.197-0.863c0.923,0,1.645,0.293,2.162,0.879C127.105,135.939,127.365,136.748,127.365,137.779z
		 M122.245,137.779c0,0.869,0.185,1.529,0.556,1.979c0.37,0.45,0.909,0.676,1.615,0.676c0.712,0,1.25-0.226,1.613-0.674
		c0.362-0.447,0.545-1.107,0.545-1.979c0-0.864-0.182-1.521-0.543-1.967c-0.362-0.445-0.897-0.67-1.606-0.67
		c-0.712,0-1.253,0.226-1.624,0.674C122.43,136.268,122.245,136.92,122.245,137.779z"/>
	<path fill="#FFFFFF" d="M132.871,136.447c0,0.65-0.222,1.15-0.666,1.501c-0.443,0.35-1.079,0.524-1.905,0.524h-0.756V141h-0.747
		v-6.425h1.666C132.069,134.575,132.871,135.199,132.871,136.447z M129.544,137.832h0.672c0.662,0,1.142-0.107,1.438-0.321
		c0.296-0.214,0.443-0.557,0.443-1.028c0-0.424-0.139-0.739-0.417-0.947c-0.277-0.208-0.712-0.313-1.301-0.313h-0.835V137.832
		L129.544,137.832z"/>
	<path fill="#FFFFFF" d="M133.701,138.921v-0.668h2.158v0.668H133.701z"/>
	<g enable-background="new    ">
		<path fill="#FFFFFF" d="M143.996,137.769c0,1.147-0.312,2.024-0.935,2.632c-0.623,0.606-1.519,0.91-2.688,0.91h-1.925v-6.95h2.13
			c1.081,0,1.92,0.3,2.52,0.898C143.699,135.857,143.996,136.694,143.996,137.769z M143.14,137.798c0-0.907-0.227-1.59-0.682-2.05
			c-0.455-0.459-1.13-0.688-2.027-0.688h-1.174v5.552h0.984c0.964,0,1.688-0.236,2.173-0.71
			C142.898,139.427,143.14,138.726,143.14,137.798z"/>
	</g>
</g>
<g enable-background="new    ">
	<path fill="#FFFFFF" d="M152.042,312.982c-0.764,0-1.367,0.254-1.809,0.764c-0.442,0.509-0.664,1.205-0.664,2.09
		c0,0.909,0.214,1.611,0.64,2.107c0.427,0.496,1.034,0.744,1.823,0.744c0.485,0,1.038-0.088,1.659-0.262v0.708
		c-0.481,0.181-1.076,0.271-1.782,0.271c-1.024,0-1.814-0.312-2.37-0.933s-0.834-1.503-0.834-2.646c0-0.717,0.134-1.344,0.402-1.883
		s0.654-0.954,1.16-1.246c0.505-0.291,1.101-0.438,1.785-0.438c0.729,0,1.365,0.134,1.911,0.4l-0.343,0.692
		C153.094,313.105,152.568,312.982,152.042,312.982z"/>
</g>
<g id="bottom-b_2_" opacity="0.1">
	<rect y="331" fill="#FFFFFF" width="260" height="22"/>
</g>
<path fill="#FFFFFF" d="M107.791,339.575h1.814c0.854,0,1.47,0.128,1.851,0.382c0.381,0.256,0.57,0.658,0.57,1.209
	c0,0.381-0.105,0.695-0.318,0.941c-0.212,0.248-0.522,0.408-0.93,0.479v0.044c0.977,0.167,1.464,0.683,1.464,1.538
	c0,0.574-0.194,1.021-0.582,1.348c-0.39,0.319-0.932,0.48-1.628,0.48h-2.241V339.575z M108.538,342.326h1.229
	c0.527,0,0.907-0.082,1.138-0.248s0.348-0.445,0.348-0.838c0-0.359-0.129-0.619-0.387-0.779c-0.259-0.16-0.668-0.24-1.23-0.24
	h-1.099L108.538,342.326L108.538,342.326z M108.538,342.959v2.404h1.34c0.519,0,0.909-0.104,1.171-0.303
	c0.262-0.199,0.394-0.521,0.394-0.941c0-0.398-0.134-0.691-0.401-0.879c-0.269-0.188-0.677-0.281-1.225-0.281H108.538
	L108.538,342.959z"/>
<path fill="#FFFFFF" d="M119.199,342.779c0,1.027-0.261,1.836-0.78,2.426c-0.521,0.588-1.243,0.883-2.168,0.883
	c-0.946,0-1.676-0.289-2.191-0.868c-0.514-0.577-0.771-1.396-0.771-2.45c0-1.045,0.258-1.854,0.772-2.432
	c0.517-0.576,1.248-0.863,2.197-0.863c0.923,0,1.644,0.293,2.162,0.879C118.939,340.939,119.199,341.748,119.199,342.779z
	 M114.079,342.779c0,0.869,0.185,1.529,0.556,1.979c0.37,0.45,0.909,0.676,1.615,0.676c0.712,0,1.25-0.226,1.612-0.674
	c0.363-0.447,0.546-1.107,0.546-1.98c0-0.854-0.182-1.521-0.543-1.967c-0.362-0.438-0.897-0.67-1.606-0.67
	c-0.712,0-1.253,0.229-1.624,0.674C114.264,341.268,114.079,341.92,114.079,342.779z"/>
<path fill="#FFFFFF" d="M122.609,346h-0.747v-5.762h-2.034v-0.663h4.815v0.663h-2.035L122.609,346L122.609,346z"/>
<path fill="#FFFFFF" d="M127.588,346h-0.747v-5.762h-2.035v-0.663h4.816v0.663h-2.035L127.588,346L127.588,346z"/>
<path fill="#FFFFFF" d="M136.166,342.779c0,1.027-0.261,1.836-0.78,2.426c-0.52,0.588-1.243,0.883-2.168,0.883
	c-0.946,0-1.676-0.289-2.191-0.868c-0.514-0.577-0.771-1.396-0.771-2.45c0-1.045,0.258-1.854,0.772-2.432
	c0.517-0.576,1.248-0.863,2.197-0.863c0.923,0,1.645,0.293,2.162,0.879C135.906,340.939,136.166,341.748,136.166,342.779z
	 M131.046,342.779c0,0.869,0.185,1.529,0.556,1.979c0.37,0.45,0.909,0.676,1.615,0.676c0.712,0,1.25-0.226,1.613-0.674
	c0.362-0.447,0.545-1.107,0.545-1.98c0-0.854-0.182-1.521-0.543-1.967c-0.362-0.438-0.897-0.67-1.606-0.67
	c-0.712,0-1.253,0.229-1.624,0.674C131.231,341.268,131.046,341.92,131.046,342.779z"/>
<path fill="#FFFFFF" d="M140.442,346l-2.18-5.695h-0.035c0.041,0.451,0.062,0.987,0.062,1.608V346h-0.69v-6.425h1.125l2.035,5.3
	h0.035l2.052-5.3h1.116V346h-0.747v-4.141c0-0.479,0.021-0.989,0.062-1.547h-0.034L141.044,346H140.442z"/>
<path fill="#FFFFFF" d="M145.21,343.922v-0.668h2.158v0.668H145.21z"/>
<g enable-background="new    ">
	<path fill="#FFFFFF" d="M154.613,342.77c0,1.146-0.311,2.023-0.934,2.631c-0.623,0.606-1.519,0.91-2.688,0.91h-1.925v-6.949h2.129
		c1.081,0,1.921,0.3,2.52,0.897C154.314,340.857,154.613,341.693,154.613,342.77z M153.758,342.797c0-0.906-0.228-1.589-0.682-2.049
		c-0.455-0.459-1.131-0.689-2.028-0.689h-1.174v5.553h0.984c0.963,0,1.688-0.235,2.172-0.711
		C153.516,344.428,153.758,343.727,153.758,342.797z"/>
</g>
<g id="equal_bg" opacity="0.1">
	<rect x="288.951" y="216.105" fill="#FFFFFF" width="259.999" height="27"/>
</g>
<g id="widget_2_" opacity="0.15">
	<rect x="342.95" y="221.105" fill="#FFFFFF" width="64" height="17"/>
</g>
<g id="widget_1_" opacity="0.15">
	<rect x="411.95" y="221.105" fill="#FFFFFF" width="63" height="17"/>
</g>
<g id="widget" opacity="0.15">
	<rect x="479.95" y="221.105" fill="#FFFFFF" width="64" height="17"/>
</g>
<g id="double_bg" opacity="0.1">
	<rect x="288.951" y="312.105" fill="#FFFFFF" width="259.999" height="27"/>
</g>
<g id="widget_4_" opacity="0.15">
	<rect x="369.95" y="317.105" fill="#FFFFFF" width="110" height="17"/>
</g>
<g id="widget_3_" opacity="0.15">
	<rect x="484.95" y="317.105" fill="#FFFFFF" width="59" height="17"/>
</g>
<g id="stack_bg" opacity="0.1">
	<rect x="288.951" y="253.105" fill="#FFFFFF" width="259.999" height="49"/>
</g>
<g id="widget_5_" opacity="0.15">
	<rect x="342.95" y="258.105" fill="#FFFFFF" width="201" height="17"/>
</g>
<g id="widget_6_" opacity="0.15">
	<rect x="342.95" y="280.105" fill="#FFFFFF" width="201" height="17"/>
</g>
<g>
	<path fill="#FFFFFF" d="M298.325,198.98h-1.065l-1.871-6.213c-0.09-0.275-0.188-0.623-0.299-1.041
		c-0.109-0.42-0.168-0.672-0.172-0.757c-0.093,0.56-0.24,1.171-0.443,1.835l-1.812,6.176H291.6l-2.478-9.277h1.146l1.473,5.73
		c0.201,0.803,0.354,1.528,0.438,2.184c0.108-0.771,0.277-1.531,0.508-2.271l1.664-5.646h1.146l1.745,5.69
		c0.2,0.649,0.375,1.396,0.516,2.221c0.079-0.601,0.23-1.326,0.456-2.189l1.46-5.719h1.146L298.325,198.98z"/>
	<path fill="#FFFFFF" d="M302.014,190.139c0-0.24,0.062-0.418,0.187-0.529c0.118-0.111,0.268-0.168,0.438-0.168
		c0.168,0,0.312,0.059,0.438,0.17c0.123,0.115,0.187,0.291,0.187,0.527c0,0.235-0.062,0.414-0.187,0.528
		c-0.122,0.117-0.271,0.176-0.438,0.176c-0.182,0-0.316-0.06-0.438-0.176C302.078,190.55,302.014,190.376,302.014,190.139z
		 M303.156,198.98h-1.056v-6.959h1.056V198.98z"/>
	<path fill="#FFFFFF" d="M310.127,198.046h-0.059c-0.486,0.707-1.214,1.062-2.188,1.062c-0.898,0-1.607-0.312-2.123-0.935
		c-0.506-0.62-0.761-1.506-0.761-2.651c0-1.145,0.257-2.037,0.771-2.67c0.511-0.637,1.217-0.951,2.111-0.951
		c0.941,0,1.668,0.344,2.18,1.025h0.074l-0.045-0.502l-0.021-0.486v-2.831h1.055v9.875h-0.854L310.127,198.046z M308.02,198.227
		c0.722,0,1.232-0.196,1.562-0.588c0.324-0.392,0.485-1.021,0.485-1.896v-0.229c0-0.979-0.163-1.688-0.491-2.104
		c-0.328-0.428-0.854-0.639-1.57-0.639c-0.615,0-1.092,0.239-1.419,0.729c-0.325,0.479-0.489,1.15-0.489,2.035
		c0,0.889,0.162,1.559,0.485,2.012C306.909,198,307.389,198.227,308.02,198.227z"/>
	<path fill="#FFFFFF" d="M319.051,192.023v0.668l-1.277,0.148c0.107,0.146,0.227,0.346,0.312,0.582
		c0.094,0.238,0.146,0.512,0.146,0.812c0,0.682-0.229,1.227-0.695,1.631c-0.465,0.406-1.104,0.609-1.914,0.609
		c-0.207,0-0.401-0.021-0.586-0.056c-0.445,0.238-0.674,0.535-0.674,0.896c0,0.188,0.068,0.332,0.229,0.422
		c0.156,0.095,0.426,0.142,0.812,0.142h1.229c0.753,0,1.332,0.158,1.734,0.479c0.396,0.312,0.604,0.773,0.604,1.386
		c0,0.771-0.311,1.354-0.929,1.766c-0.616,0.4-1.521,0.604-2.702,0.604c-0.91,0-1.604-0.168-2.104-0.508
		c-0.49-0.342-0.736-0.814-0.736-1.438c0-0.429,0.136-0.789,0.405-1.103c0.271-0.312,0.646-0.521,1.145-0.629
		c-0.179-0.08-0.327-0.205-0.443-0.375c-0.119-0.168-0.186-0.365-0.186-0.59c0-0.26,0.062-0.479,0.202-0.666
		c0.137-0.191,0.351-0.375,0.642-0.559c-0.354-0.146-0.646-0.396-0.879-0.754c-0.229-0.354-0.34-0.768-0.34-1.225
		c0-0.767,0.229-1.354,0.688-1.765c0.454-0.41,1.104-0.617,1.938-0.617c0.362,0,0.689,0.044,0.979,0.128L319.051,192.023
		L319.051,192.023z M313.504,200.148c0,0.377,0.157,0.662,0.479,0.854c0.312,0.188,0.771,0.291,1.354,0.291
		c0.895,0,1.541-0.131,1.973-0.396c0.431-0.265,0.644-0.623,0.644-1.073c0-0.38-0.116-0.642-0.354-0.783
		c-0.229-0.146-0.678-0.224-1.312-0.224h-1.266c-0.479,0-0.854,0.115-1.114,0.347C313.639,199.395,313.504,199.723,313.504,200.148z
		 M314.073,194.251c0,0.479,0.139,0.854,0.413,1.104c0.271,0.248,0.655,0.375,1.146,0.375c1.023,0,1.541-0.5,1.541-1.498
		c0-1.045-0.521-1.566-1.562-1.566c-0.495,0-0.876,0.133-1.146,0.398C314.205,193.334,314.073,193.727,314.073,194.251z"/>
	<path fill="#FFFFFF" d="M323.42,199.107c-1.021,0-1.841-0.312-2.436-0.938c-0.597-0.625-0.896-1.496-0.896-2.604
		c0-1.123,0.271-2.019,0.828-2.67c0.559-0.66,1.293-0.99,2.229-0.99c0.871,0,1.562,0.287,2.063,0.856
		c0.516,0.569,0.77,1.327,0.77,2.271v0.668h-4.79c0.021,0.815,0.228,1.438,0.608,1.858c0.396,0.422,0.939,0.635,1.65,0.635
		c0.75,0,1.488-0.151,2.228-0.471v0.938c-0.366,0.153-0.729,0.271-1.062,0.346C324.289,199.072,323.889,199.107,323.42,199.107z
		 M323.135,192.779c-0.561,0-1.004,0.184-1.336,0.547s-0.521,0.867-0.588,1.512h3.637c0-0.666-0.146-1.174-0.438-1.521
		C324.107,192.957,323.684,192.779,323.135,192.779z"/>
	<path fill="#FFFFFF" d="M330.02,198.238c0.188,0,0.359-0.014,0.541-0.043c0.175-0.025,0.312-0.055,0.404-0.084v0.807
		c-0.105,0.062-0.273,0.104-0.507,0.145c-0.224,0.029-0.424,0.057-0.602,0.057c-1.354,0-2.021-0.709-2.021-2.127v-4.141h-0.984
		v-0.515l0.996-0.438l0.438-1.481h0.607v1.608h2.021v0.815h-2.021v4.099c0,0.42,0.102,0.737,0.3,0.965
		C329.4,198.126,329.674,198.238,330.02,198.238z"/>
	<path fill="#FFFFFF" d="M335.898,198.98v-9.277h1.078v8.303h4.096v0.979L335.898,198.98L335.898,198.98z"/>
	<path fill="#FFFFFF" d="M346.766,198.98l-0.221-0.988h-0.052c-0.347,0.438-0.688,0.73-1.037,0.887
		c-0.345,0.152-0.771,0.229-1.29,0.229c-0.688,0-1.229-0.178-1.622-0.529s-0.587-0.861-0.587-1.52c0-1.406,1.123-2.144,3.368-2.209
		l1.188-0.039v-0.433c0-0.547-0.118-0.948-0.354-1.209c-0.229-0.26-0.604-0.396-1.127-0.396c-0.58,0-1.233,0.184-1.968,0.533
		l-0.324-0.813c0.346-0.188,0.721-0.332,1.127-0.438c0.408-0.104,0.816-0.158,1.229-0.158c0.826,0,1.438,0.188,1.846,0.556
		c0.396,0.366,0.601,0.959,0.601,1.771v4.75h-0.771L346.766,198.98L346.766,198.98z M344.387,198.238
		c0.653,0,1.183-0.18,1.557-0.541c0.375-0.357,0.562-0.861,0.562-1.51v-0.629l-1.056,0.045c-0.84,0.026-1.44,0.16-1.812,0.393
		c-0.361,0.229-0.557,0.588-0.557,1.074c0,0.383,0.114,0.672,0.347,0.869C343.646,198.139,343.971,198.238,344.387,198.238z"/>
	<path fill="#FFFFFF" d="M348.612,192.023h1.13l1.521,3.969c0.334,0.904,0.542,1.562,0.611,1.961h0.062
		c0.055-0.217,0.17-0.586,0.346-1.104c0.177-0.521,0.75-2.136,1.725-4.824h1.143l-2.989,7.925c-0.297,0.78-0.646,1.34-1.038,1.666
		c-0.396,0.325-0.882,0.489-1.457,0.489c-0.32,0-0.639-0.035-0.951-0.104v-0.85c0.231,0.057,0.492,0.076,0.78,0.076
		c0.724,0,1.239-0.402,1.55-1.221l0.388-0.988L348.612,192.023z"/>
	<path fill="#FFFFFF" d="M362.271,195.498c0,1.133-0.285,2.021-0.854,2.654c-0.572,0.639-1.354,0.955-2.368,0.955
		c-0.622,0-1.176-0.146-1.646-0.438c-0.481-0.293-0.854-0.711-1.117-1.258c-0.271-0.547-0.396-1.187-0.396-1.916
		c0-1.138,0.282-2.021,0.854-2.646c0.562-0.639,1.354-0.949,2.354-0.949c0.979,0,1.747,0.324,2.32,0.977
		C361.985,193.516,362.271,194.393,362.271,195.498z M356.973,195.498c0,0.896,0.18,1.564,0.521,2.029
		c0.354,0.467,0.878,0.697,1.565,0.697c0.688,0,1.216-0.23,1.563-0.695c0.354-0.463,0.532-1.141,0.532-2.033
		c0-0.885-0.181-1.557-0.532-2.016c-0.354-0.459-0.89-0.688-1.584-0.688c-0.688,0-1.211,0.228-1.562,0.681
		C357.146,193.921,356.973,194.6,356.973,195.498z"/>
	<path fill="#FFFFFF" d="M365.11,192.023v4.516c0,0.564,0.129,0.988,0.387,1.271c0.26,0.274,0.663,0.418,1.214,0.418
		c0.729,0,1.26-0.199,1.604-0.601c0.337-0.396,0.506-1.047,0.506-1.944v-3.658h1.053v6.957h-0.868l-0.146-0.937h-0.062
		c-0.218,0.347-0.517,0.604-0.896,0.787c-0.394,0.187-0.819,0.271-1.312,0.271c-0.848,0-1.479-0.201-1.896-0.604
		c-0.425-0.396-0.642-1.045-0.642-1.934v-4.549h1.063L365.11,192.023L365.11,192.023z"/>
	<path fill="#FFFFFF" d="M374.348,198.238c0.188,0,0.354-0.014,0.529-0.043c0.184-0.025,0.312-0.055,0.411-0.084v0.807
		c-0.104,0.062-0.271,0.104-0.505,0.145c-0.224,0.029-0.422,0.057-0.602,0.057c-1.354,0-2.021-0.709-2.021-2.127v-4.141h-0.996
		v-0.515l0.996-0.438l0.444-1.481h0.604v1.608h2.021v0.815h-2.021v4.099c0,0.42,0.104,0.737,0.306,0.965
		C373.727,198.126,374,198.238,374.348,198.238z"/>
	<path fill="#FFFFFF" d="M381.177,197.084c0,0.646-0.229,1.146-0.726,1.498c-0.482,0.354-1.158,0.525-2.03,0.525
		c-0.923,0-1.643-0.146-2.157-0.438v-0.979c0.347,0.168,0.691,0.307,1.075,0.397c0.396,0.099,0.752,0.146,1.106,0.146
		c0.551,0,0.975-0.088,1.271-0.262c0.297-0.179,0.444-0.443,0.444-0.806c0-0.271-0.117-0.502-0.354-0.692
		c-0.233-0.192-0.691-0.42-1.374-0.687c-0.646-0.24-1.106-0.451-1.393-0.636c-0.271-0.184-0.479-0.387-0.604-0.608
		c-0.135-0.229-0.198-0.5-0.198-0.815c0-0.562,0.229-1.019,0.688-1.342c0.463-0.328,1.097-0.492,1.896-0.492
		c0.749,0,1.479,0.149,2.194,0.457l-0.375,0.854c-0.695-0.289-1.33-0.438-1.896-0.438c-0.499,0-0.876,0.078-1.13,0.229
		c-0.254,0.155-0.381,0.373-0.381,0.646c0,0.188,0.048,0.353,0.144,0.479c0.104,0.133,0.249,0.258,0.472,0.375
		c0.211,0.118,0.605,0.289,1.221,0.519c0.822,0.301,1.382,0.604,1.672,0.905C381.031,196.236,381.177,196.623,381.177,197.084z"/>
</g>
<path fill="#FFFFFF" d="M299.907,227.553c0,0.65-0.224,1.15-0.666,1.5s-1.078,0.525-1.903,0.525h-0.756v2.525h-0.748v-6.425h1.666
	C299.105,225.68,299.907,226.305,299.907,227.553z M296.582,228.938h0.672c0.661,0,1.146-0.105,1.438-0.318
	c0.294-0.217,0.438-0.561,0.438-1.029c0-0.424-0.141-0.73-0.418-0.939c-0.271-0.207-0.712-0.312-1.301-0.312h-0.834L296.582,228.938
	L296.582,228.938z"/>
<path fill="#FFFFFF" d="M305.29,233.105l-0.8-2.043h-2.575l-0.79,2.043h-0.757l2.54-6.451h0.628l2.527,6.451H305.29z
	 M304.258,230.389l-0.746-1.99c-0.099-0.252-0.188-0.561-0.299-0.928c-0.062,0.281-0.147,0.592-0.271,0.928l-0.766,1.99H304.258z"/>
<path fill="#FFFFFF" d="M307.695,230.434v2.672h-0.748v-6.426h1.764c0.787,0,1.369,0.152,1.747,0.453
	c0.376,0.303,0.563,0.756,0.563,1.363c0,0.85-0.438,1.424-1.292,1.723l1.743,2.887h-0.892l-1.557-2.672H307.695z M307.695,229.793
	h1.021c0.526,0,0.914-0.104,1.16-0.312c0.245-0.209,0.368-0.521,0.368-0.938c0-0.428-0.125-0.729-0.376-0.918
	c-0.25-0.188-0.651-0.281-1.206-0.281h-0.971L307.695,229.793L307.695,229.793z"/>
<path fill="#FFFFFF" d="M316.551,233.105l-0.8-2.043h-2.575l-0.791,2.043h-0.756l2.54-6.451h0.628l2.526,6.451H316.551z
	 M315.518,230.389l-0.744-1.99c-0.104-0.252-0.197-0.561-0.301-0.928c-0.063,0.281-0.155,0.592-0.275,0.928l-0.756,1.99H315.518z"/>
<path fill="#FFFFFF" d="M318.206,233.105v-6.426h0.748v5.746h2.834v0.68H318.206z"/>
<path fill="#FFFFFF" d="M326.46,233.105h-3.582v-6.426h3.582v0.662h-2.835v2.07h2.662v0.648h-2.662v2.363h2.835V233.105z"/>
<path fill="#FFFFFF" d="M327.883,233.105v-6.426h0.748v5.746h2.834v0.68H327.883z"/>
<path fill="#FFFFFF" d="M332.555,233.105v-6.426h0.748v5.746h2.834v0.68H332.555z"/>
<path fill="#FFFFFF" d="M299.46,278.195c0,0.565-0.205,1.008-0.615,1.322c-0.4,0.314-0.967,0.477-1.67,0.477
	c-0.762,0-1.348-0.1-1.758-0.297v-0.721c0.265,0.111,0.552,0.199,0.86,0.266c0.312,0.064,0.617,0.098,0.924,0.098
	c0.497,0,0.872-0.096,1.124-0.277c0.252-0.18,0.378-0.451,0.378-0.787c0-0.229-0.045-0.398-0.134-0.549
	c-0.092-0.145-0.239-0.27-0.448-0.395c-0.21-0.119-0.527-0.26-0.955-0.408c-0.6-0.215-1.023-0.467-1.281-0.76
	c-0.256-0.295-0.385-0.68-0.385-1.146c0-0.496,0.188-0.896,0.559-1.188c0.373-0.293,0.864-0.439,1.479-0.439
	c0.639,0,1.229,0.113,1.762,0.355l-0.229,0.646c-0.53-0.229-1.046-0.334-1.547-0.334c-0.396,0-0.706,0.086-0.933,0.256
	c-0.229,0.17-0.332,0.402-0.332,0.707c0,0.227,0.039,0.4,0.121,0.547c0.082,0.146,0.225,0.271,0.411,0.396
	c0.192,0.117,0.492,0.25,0.896,0.396c0.674,0.24,1.138,0.498,1.392,0.771C299.332,277.398,299.46,277.756,299.46,278.195z"/>
<path fill="#FFFFFF" d="M302.752,280.904h-0.748v-5.762h-2.034v-0.662h4.815v0.662h-2.033V280.904L302.752,280.904z"/>
<path fill="#FFFFFF" d="M309.79,280.904l-0.8-2.043h-2.575l-0.79,2.043h-0.757l2.54-6.449h0.628l2.527,6.449H309.79z
	 M308.758,278.189l-0.746-1.992c-0.099-0.25-0.188-0.562-0.299-0.926c-0.062,0.279-0.147,0.59-0.271,0.926l-0.766,1.992H308.758z"/>
<path fill="#FFFFFF" d="M314.198,275.055c-0.707,0-1.266,0.236-1.673,0.707c-0.408,0.469-0.612,1.113-0.612,1.93
	c0,0.846,0.196,1.492,0.592,1.949c0.396,0.459,0.956,0.689,1.688,0.689c0.439,0,0.96-0.08,1.532-0.242v0.656
	c-0.443,0.158-0.993,0.25-1.646,0.25c-0.946,0-1.677-0.287-2.19-0.861c-0.515-0.574-0.771-1.396-0.771-2.447
	c0-0.662,0.124-1.242,0.372-1.739c0.247-0.497,0.604-0.884,1.071-1.151c0.468-0.271,1.018-0.396,1.646-0.396
	c0.675,0,1.264,0.123,1.771,0.36l-0.315,0.646C315.171,275.17,314.685,275.055,314.198,275.055z"/>
<path fill="#FFFFFF" d="M321.766,280.904h-0.887l-2.343-3.113l-0.672,0.604v2.521h-0.748v-6.43h0.748v3.188l2.913-3.188h0.884
	l-2.584,2.791L321.766,280.904z"/>
<path fill="#FFFFFF" d="M326.231,280.904h-3.582v-6.424h3.582v0.662h-2.835v2.068h2.661v0.66h-2.661v2.354h2.835V280.904z"/>
<path fill="#FFFFFF" d="M332.782,277.631c0,1.061-0.288,1.871-0.862,2.432c-0.576,0.562-1.396,0.844-2.479,0.844h-1.78v-6.426h1.97
	c0.999,0,1.774,0.275,2.329,0.83C332.506,275.863,332.782,276.637,332.782,277.631z M331.991,277.656
	c0-0.836-0.21-1.469-0.631-1.893c-0.42-0.428-1.045-0.641-1.874-0.641h-1.085v5.133h0.907c0.893,0,1.562-0.219,2.011-0.654
	C331.768,279.164,331.991,278.516,331.991,277.656z"/>
<g id="double_bg_1_" opacity="0.1">
	<rect x="288.951" y="348.105" fill="#FFFFFF" width="259.999" height="27"/>
</g>
<g>
	<path fill="#FFFFFF" d="M295.916,328.793h-0.748v-6.424h3.582v0.662h-2.834v2.352h2.661v0.664h-2.661V328.793z"/>
	<path fill="#FFFFFF" d="M299.812,328.793v-6.424h0.747v6.424H299.812z"/>
	<path fill="#FFFFFF" d="M303.07,326.121v2.672h-0.748v-6.424h1.764c0.787,0,1.369,0.15,1.747,0.451
		c0.376,0.303,0.563,0.756,0.563,1.363c0,0.85-0.435,1.424-1.292,1.723l1.743,2.887h-0.886l-1.557-2.672H303.07L303.07,326.121z
		 M303.07,325.479h1.021c0.526,0,0.914-0.104,1.16-0.312c0.245-0.209,0.368-0.521,0.368-0.94c0-0.427-0.125-0.729-0.376-0.918
		c-0.25-0.188-0.651-0.281-1.206-0.281h-0.971L303.07,325.479L303.07,325.479z"/>
	<path fill="#FFFFFF" d="M311.512,327.084c0,0.564-0.203,1.006-0.611,1.322c-0.41,0.316-0.971,0.475-1.672,0.475
		c-0.764,0-1.35-0.098-1.76-0.295v-0.721c0.268,0.111,0.554,0.199,0.86,0.264c0.312,0.064,0.618,0.1,0.924,0.1
		c0.497,0,0.872-0.096,1.125-0.282c0.252-0.188,0.378-0.448,0.378-0.788c0-0.225-0.045-0.402-0.135-0.549
		c-0.09-0.145-0.238-0.271-0.447-0.396c-0.21-0.116-0.524-0.256-0.956-0.405c-0.599-0.216-1.021-0.47-1.277-0.763
		c-0.259-0.293-0.389-0.676-0.389-1.146c0-0.494,0.188-0.89,0.562-1.186c0.372-0.291,0.862-0.438,1.478-0.438
		c0.643,0,1.229,0.119,1.766,0.354l-0.232,0.646c-0.529-0.221-1.046-0.334-1.547-0.334c-0.396,0-0.705,0.087-0.928,0.259
		c-0.227,0.172-0.334,0.403-0.334,0.705c0,0.227,0.039,0.405,0.12,0.551c0.082,0.144,0.224,0.271,0.416,0.392
		c0.192,0.118,0.491,0.25,0.896,0.396c0.674,0.239,1.138,0.498,1.392,0.772C311.385,326.287,311.512,326.645,311.512,327.084z"/>
	<path fill="#FFFFFF" d="M314.804,328.793h-0.746v-5.762h-2.032v-0.662h4.812v0.662h-2.033L314.804,328.793L314.804,328.793z"/>
	<path fill="#FFFFFF" d="M325.271,325.52c0,1.062-0.288,1.871-0.863,2.434c-0.576,0.562-1.403,0.842-2.484,0.842h-1.778v-6.424
		h1.971c0.999,0,1.771,0.273,2.33,0.83C324.993,323.752,325.271,324.525,325.271,325.52z M324.48,325.545
		c0-0.838-0.212-1.471-0.633-1.896c-0.422-0.426-1.047-0.639-1.874-0.639h-1.085v5.133h0.907c0.895,0,1.562-0.221,2.011-0.656
		C324.256,327.052,324.48,326.404,324.48,325.545z"/>
	<path fill="#FFFFFF" d="M332.28,325.572c0,1.027-0.262,1.836-0.779,2.426c-0.521,0.588-1.243,0.883-2.169,0.883
		c-0.946,0-1.677-0.289-2.188-0.865c-0.516-0.578-0.771-1.396-0.771-2.451c0-1.045,0.259-1.854,0.773-2.434
		c0.516-0.574,1.246-0.861,2.193-0.861c0.926,0,1.646,0.293,2.162,0.879C332.021,323.732,332.28,324.541,332.28,325.572z
		 M327.159,325.572c0,0.869,0.187,1.529,0.558,1.979c0.37,0.449,0.908,0.678,1.614,0.678c0.712,0,1.249-0.227,1.612-0.674
		c0.361-0.447,0.545-1.105,0.545-1.979c0-0.861-0.183-1.521-0.543-1.969c-0.36-0.443-0.896-0.67-1.605-0.67
		c-0.711,0-1.253,0.229-1.623,0.674C327.346,324.059,327.159,324.713,327.159,325.572z"/>
	<path fill="#FFFFFF" d="M338.564,322.369v4.156c0,0.73-0.225,1.309-0.663,1.727c-0.441,0.42-1.052,0.629-1.823,0.629
		c-0.772,0-1.372-0.211-1.796-0.633c-0.423-0.422-0.635-1.002-0.635-1.74v-4.139h0.745v4.191c0,0.534,0.146,0.945,0.438,1.232
		s0.727,0.434,1.292,0.434c0.542,0,0.959-0.146,1.254-0.436c0.292-0.289,0.438-0.703,0.438-1.242v-4.184h0.745L338.564,322.369
		L338.564,322.369z"/>
	<path fill="#FFFFFF" d="M340.264,322.369h1.814c0.854,0,1.47,0.127,1.852,0.381c0.382,0.256,0.57,0.658,0.57,1.209
		c0,0.381-0.104,0.695-0.316,0.941c-0.214,0.248-0.521,0.408-0.932,0.48v0.043c0.979,0.168,1.464,0.682,1.464,1.539
		c0,0.574-0.19,1.021-0.582,1.346c-0.39,0.32-0.933,0.482-1.628,0.482h-2.24L340.264,322.369L340.264,322.369z M341.014,325.119
		h1.229c0.525,0,0.906-0.082,1.139-0.248c0.231-0.166,0.351-0.441,0.351-0.838c0-0.359-0.131-0.619-0.391-0.779
		c-0.259-0.158-0.668-0.238-1.229-0.238h-1.101L341.014,325.119L341.014,325.119z M341.014,325.752v2.4h1.343
		c0.519,0,0.905-0.102,1.171-0.301c0.263-0.201,0.395-0.52,0.395-0.939c0-0.398-0.135-0.691-0.398-0.883
		c-0.271-0.188-0.68-0.277-1.228-0.277H341.014z"/>
	<path fill="#FFFFFF" d="M346.096,328.793v-6.424h0.748v5.746h2.834v0.678H346.096z"/>
	<path fill="#FFFFFF" d="M354.35,328.793h-3.582v-6.424h3.582v0.662h-2.834v2.07h2.66v0.656h-2.66v2.365h2.834V328.793z"/>
	<path fill="#FFFFFF" d="M360.902,325.52c0,1.062-0.288,1.871-0.863,2.434s-1.403,0.842-2.484,0.842h-1.776v-6.424h1.969
		c0.999,0,1.774,0.273,2.33,0.83C360.625,323.752,360.902,324.525,360.902,325.52z M360.111,325.545c0-0.838-0.21-1.471-0.631-1.896
		c-0.422-0.424-1.047-0.639-1.874-0.639h-1.085v5.133h0.905c0.895,0,1.562-0.221,2.013-0.656
		C359.887,327.051,360.111,326.404,360.111,325.545z"/>
</g>
<g>
	<path fill="#FFFFFF" d="M295.168,363.793v-6.424h0.748v5.746h2.834v0.678H295.168z"/>
	<path fill="#FFFFFF" d="M303.879,363.793l-0.801-2.043h-2.574l-0.791,2.043h-0.757l2.54-6.451h0.629l2.526,6.451H303.879z
		 M302.846,361.078l-0.744-1.992c-0.1-0.25-0.195-0.561-0.301-0.926c-0.062,0.279-0.153,0.59-0.273,0.926l-0.757,1.992H302.846z"/>
	<path fill="#FFFFFF" d="M309.16,362.084c0,0.564-0.205,1.006-0.614,1.322c-0.41,0.316-0.968,0.475-1.67,0.475
		c-0.763,0-1.349-0.098-1.759-0.295v-0.721c0.265,0.111,0.552,0.199,0.859,0.264c0.312,0.064,0.618,0.1,0.925,0.1
		c0.498,0,0.873-0.096,1.125-0.283c0.252-0.187,0.378-0.447,0.378-0.787c0-0.225-0.045-0.402-0.136-0.549
		c-0.09-0.145-0.237-0.271-0.446-0.396c-0.21-0.116-0.527-0.256-0.956-0.405c-0.6-0.216-1.023-0.47-1.28-0.763
		s-0.386-0.676-0.386-1.146c0-0.494,0.188-0.89,0.56-1.186c0.372-0.291,0.863-0.438,1.479-0.438c0.64,0,1.228,0.119,1.762,0.354
		l-0.229,0.646c-0.528-0.221-1.048-0.334-1.549-0.334c-0.396,0-0.703,0.087-0.929,0.259c-0.223,0.172-0.334,0.403-0.334,0.707
		c0,0.225,0.041,0.403,0.123,0.549c0.082,0.144,0.222,0.271,0.416,0.392c0.194,0.119,0.492,0.25,0.896,0.396
		c0.677,0.239,1.141,0.498,1.395,0.772C309.033,361.287,309.16,361.645,309.16,362.084z"/>
	<path fill="#FFFFFF" d="M312.452,363.793h-0.748v-5.762h-2.033v-0.662h4.815v0.662h-2.034V363.793L312.452,363.793z"/>
	<path fill="#FFFFFF" d="M322.92,360.52c0,1.062-0.288,1.871-0.861,2.434c-0.574,0.562-1.402,0.842-2.483,0.842h-1.779v-6.424h1.969
		c0.999,0,1.774,0.273,2.33,0.83C322.643,358.752,322.92,359.525,322.92,360.52z M322.129,360.545c0-0.838-0.21-1.469-0.632-1.896
		c-0.42-0.426-1.045-0.639-1.874-0.639h-1.085v5.133h0.909c0.892,0,1.561-0.221,2.009-0.656
		C321.904,362.052,322.129,361.404,322.129,360.545z"/>
	<path fill="#FFFFFF" d="M329.929,360.572c0,1.027-0.26,1.836-0.776,2.426c-0.521,0.588-1.243,0.883-2.168,0.883
		c-0.947,0-1.681-0.289-2.191-0.865c-0.513-0.578-0.771-1.396-0.771-2.451c0-1.045,0.26-1.854,0.771-2.434
		c0.519-0.574,1.248-0.861,2.197-0.861c0.924,0,1.646,0.293,2.162,0.879C329.67,358.732,329.929,359.541,329.929,360.572z
		 M324.809,360.572c0,0.869,0.188,1.529,0.559,1.979c0.37,0.449,0.908,0.678,1.615,0.678c0.711,0,1.249-0.227,1.608-0.674
		c0.362-0.447,0.545-1.105,0.545-1.979c0-0.861-0.182-1.521-0.543-1.969c-0.357-0.443-0.896-0.67-1.604-0.67
		c-0.711,0-1.253,0.229-1.623,0.674C324.993,359.059,324.809,359.713,324.809,360.572z"/>
	<path fill="#FFFFFF" d="M336.213,357.369v4.156c0,0.73-0.222,1.309-0.663,1.727c-0.438,0.42-1.05,0.629-1.821,0.629
		s-1.37-0.211-1.796-0.633c-0.425-0.422-0.637-1.002-0.637-1.74v-4.139h0.747v4.191c0,0.535,0.146,0.945,0.438,1.232
		s0.724,0.434,1.292,0.434c0.542,0,0.959-0.146,1.253-0.436c0.292-0.289,0.438-0.703,0.438-1.242v-4.184h0.747L336.213,357.369
		L336.213,357.369z"/>
	<path fill="#FFFFFF" d="M337.913,357.369h1.813c0.854,0,1.471,0.127,1.853,0.381c0.381,0.256,0.57,0.658,0.57,1.209
		c0,0.381-0.104,0.695-0.317,0.941c-0.213,0.248-0.521,0.408-0.931,0.48v0.043c0.978,0.168,1.464,0.682,1.464,1.539
		c0,0.574-0.193,1.021-0.582,1.346c-0.391,0.32-0.934,0.482-1.628,0.482h-2.242V357.369L337.913,357.369z M338.661,360.119h1.229
		c0.524,0,0.904-0.082,1.14-0.248c0.229-0.166,0.348-0.441,0.348-0.838c0-0.359-0.13-0.619-0.388-0.779
		c-0.258-0.158-0.668-0.238-1.229-0.238h-1.099V360.119z M338.661,360.752v2.4h1.341c0.521,0,0.908-0.102,1.171-0.301
		c0.267-0.201,0.396-0.52,0.396-0.939c0-0.398-0.136-0.691-0.402-0.883c-0.268-0.188-0.676-0.277-1.224-0.277H338.661z"/>
	<path fill="#FFFFFF" d="M343.744,363.793v-6.424h0.748v5.746h2.834v0.678H343.744z"/>
	<path fill="#FFFFFF" d="M351.997,363.793h-3.582v-6.424h3.582v0.662h-2.834v2.07h2.662v0.656h-2.662v2.365h2.834V363.793z"/>
	<path fill="#FFFFFF" d="M358.551,360.52c0,1.062-0.286,1.871-0.859,2.434c-0.576,0.562-1.404,0.842-2.485,0.842h-1.779v-6.424
		h1.973c0.999,0,1.771,0.273,2.329,0.83C358.273,358.752,358.551,359.525,358.551,360.52z M357.76,360.545
		c0-0.838-0.21-1.469-0.631-1.896c-0.42-0.426-1.045-0.639-1.874-0.639h-1.085v5.133h0.908c0.892,0,1.561-0.221,2.01-0.656
		C357.534,362.051,357.76,361.404,357.76,360.545z"/>
</g>
<g id="widget_8_" opacity="0.15">
	<rect x="433.95" y="353.105" fill="#FFFFFF" width="110" height="17"/>
</g>
<g id="widget_7_" opacity="0.15">
	<rect x="369.95" y="353.105" fill="#FFFFFF" width="59" height="17"/>
</g>
<rect id="footer_1_" y="358.005" opacity="0.05" fill="#FFFFFF" enable-background="new    " width="260" height="17"/>
<g>
	<path fill="#FFFFFF" d="M114.763,370.005h-0.747v-6.425h3.582v0.663h-2.834v2.353h2.663v0.663h-2.663L114.763,370.005
		L114.763,370.005z"/>
	<path fill="#FFFFFF" d="M124.237,366.784c0,1.026-0.26,1.836-0.779,2.426c-0.521,0.588-1.243,0.883-2.168,0.883
		c-0.946,0-1.677-0.288-2.191-0.868c-0.514-0.576-0.771-1.396-0.771-2.449c0-1.045,0.258-1.854,0.772-2.433
		c0.517-0.575,1.248-0.862,2.197-0.862c0.923,0,1.644,0.293,2.162,0.879C123.977,364.943,124.237,365.753,124.237,366.784z
		 M119.118,366.784c0,0.868,0.185,1.528,0.556,1.979c0.37,0.448,0.909,0.676,1.615,0.676c0.712,0,1.25-0.228,1.612-0.674
		c0.363-0.447,0.545-1.107,0.545-1.98c0-0.861-0.181-1.521-0.543-1.967c-0.361-0.443-0.896-0.67-1.605-0.67
		c-0.712,0-1.253,0.229-1.624,0.674C119.303,365.271,119.118,365.925,119.118,366.784z"/>
	<path fill="#FFFFFF" d="M131.247,366.784c0,1.026-0.261,1.836-0.78,2.426c-0.521,0.588-1.243,0.883-2.168,0.883
		c-0.946,0-1.676-0.288-2.191-0.868c-0.514-0.576-0.771-1.396-0.771-2.449c0-1.045,0.258-1.854,0.772-2.433
		c0.517-0.575,1.248-0.862,2.197-0.862c0.923,0,1.645,0.293,2.162,0.879C130.985,364.945,131.247,365.753,131.247,366.784z
		 M126.127,366.784c0,0.868,0.185,1.528,0.556,1.979c0.37,0.448,0.909,0.676,1.615,0.676c0.712,0,1.25-0.228,1.613-0.674
		c0.362-0.447,0.545-1.107,0.545-1.98c0-0.861-0.182-1.521-0.543-1.967c-0.362-0.443-0.897-0.67-1.606-0.67
		c-0.712,0-1.253,0.229-1.624,0.674C126.312,365.271,126.127,365.925,126.127,366.784z"/>
	<path fill="#FFFFFF" d="M134.657,370.005h-0.747v-5.762h-2.035v-0.663h4.815v0.663h-2.035v5.762H134.657z"/>
	<path fill="#FFFFFF" d="M141.24,370.005h-3.582v-6.425h3.582v0.663h-2.835v2.069h2.663v0.653h-2.663v2.364h2.835V370.005z"/>
	<path fill="#FFFFFF" d="M143.411,367.333v2.672h-0.747v-6.425h1.762c0.788,0,1.37,0.15,1.747,0.452
		c0.376,0.303,0.563,0.756,0.563,1.362c0,0.851-0.431,1.424-1.292,1.724l1.745,2.887h-0.883l-1.556-2.672H143.411z M143.411,366.691
		h1.023c0.527,0,0.914-0.104,1.16-0.312c0.246-0.209,0.369-0.521,0.369-0.938c0-0.428-0.125-0.729-0.376-0.918
		c-0.25-0.188-0.652-0.279-1.206-0.279h-0.971L143.411,366.691L143.411,366.691z"/>
</g>
</svg>
